Kobata-Bold.ufo
<glyph name="exclam" format="2">
	<advance width="250"/>
	<unicode hex="0021"/>
	<outline>
		<contour>
			<point x="50" y="800" type="line"/>
			<point x="50" y="250" type="line"/>
			<point x="200" y="250" type="line"/>
			<point x="200" y="800" type="line"/>
		</contour>
		<component base="_part.point"/>
	</outline>
</glyph>
<glyph name="quotedbl" format="2">
	<advance width="385"/>
	<unicode hex="0022"/>
	<outline>
		<contour>
			<point x="235" y="750" type="line"/>
			<point x="235" y="450" type="line"/>
			<point x="385" y="450" type="line"/>
			<point x="385" y="750" type="line"/>
		</contour>
		<contour>
			<point x="0" y="750" type="line"/>
			<point x="0" y="450" type="line"/>
			<point x="150" y="450" type="line"/>
			<point x="150" y="750" type="line"/>
		</contour>
	</outline>
</glyph>
<glyph name="numbersign" format="2">
	<advance width="750"/>
	<unicode hex="0023"/>
	<outline>
		<contour>
			<point x="450" y="800" type="line"/>
			<point x="450" y="650" type="line"/>
			<point x="600" y="650" type="line"/>
			<point x="600" y="800" type="line"/>
		</contour>
		<contour>
			<point x="150" y="150" type="line"/>
			<point x="150" y="0" type="line"/>
			<point x="300" y="0" type="line"/>
			<point x="300" y="150" type="line"/>
		</contour>
		<contour>
			<point x="50" y="300" type="line"/>
			<point x="50" y="150" type="line"/>
			<point x="150" y="150" type="line"/>
			<point x="150" y="300" type="line"/>
		</contour>
		<contour>
			<point x="450" y="150" type="line"/>
			<point x="450" y="0" type="line"/>
			<point x="600" y="0" type="line"/>
			<point x="600" y="150" type="line"/>
		</contour>
		<contour>
			<point x="300" y="300" type="line"/>
			<point x="300" y="150" type="line"/>
			<point x="450" y="150" type="line"/>
			<point x="450" y="300" type="line"/>
		</contour>
		<contour>
			<point x="150" y="500" type="line"/>
			<point x="150" y="300" type="line"/>
			<point x="300" y="300" type="line"/>
			<point x="300" y="500" type="line"/>
		</contour>
		<contour>
			<point x="50" y="650" type="line"/>
			<point x="50" y="500" type="line"/>
			<point x="150" y="500" type="line"/>
			<point x="150" y="650" type="line"/>
		</contour>
		<contour>
			<point x="600" y="300" type="line"/>
			<point x="600" y="150" type="line"/>
			<point x="700" y="150" type="line"/>
			<point x="700" y="300" type="line"/>
		</contour>
		<contour>
			<point x="450" y="500" type="line"/>
			<point x="450" y="300" type="line"/>
			<point x="600" y="300" type="line"/>
			<point x="600" y="500" type="line"/>
		</contour>
		<contour>
			<point x="300" y="650" type="line"/>
			<point x="300" y="500" type="line"/>
			<point x="450" y="500" type="line"/>
			<point x="450" y="650" type="line"/>
		</contour>
		<contour>
			<point x="150" y="800" type="line"/>
			<point x="150" y="650" type="line"/>
			<point x="300" y="650" type="line"/>
			<point x="300" y="800" type="line"/>
		</contour>
		<contour>
			<point x="600" y="650" type="line"/>
			<point x="600" y="500" type="line"/>
			<point x="700" y="500" type="line"/>
			<point x="700" y="650" type="line"/>
		</contour>
	</outline>
</glyph>
<glyph name="dollar" format="2">
	<advance width="730"/>
	<unicode hex="0024"/>
	<outline>
		<contour>
			<point x="415" y="800" type="line"/>
			<point x="415" y="650" type="line"/>
			<point x="665" y="650" type="line"/>
			<point x="665" y="800" type="line"/>
		</contour>
		<contour>
			<point x="565" y="350" type="line"/>
			<point x="565" y="150" type="line"/>
			<point x="665" y="150" type="line"/>
			<point x="665" y="350" type="line"/>
		</contour>
		<contour>
			<point x="65" y="150" type="line"/>
			<point x="65" y="0" type="line"/>
			<point x="315" y="0" type="line"/>
			<point x="315" y="150" type="line"/>
		</contour>
		<contour>
			<point x="315" y="0" type="line"/>
			<point x="315" y="-100" type="line"/>
			<point x="415" y="-100" type="line"/>
			<point x="415" y="0" type="line"/>
		</contour>
		<contour>
			<point x="415" y="150" type="line"/>
			<point x="415" y="0" type="line"/>
			<point x="565" y="0" type="line"/>
			<point x="565" y="150" type="line"/>
		</contour>
		<contour>
			<point x="315" y="350" type="line"/>
			<point x="315" y="150" type="line"/>
			<point x="415" y="150" type="line"/>
			<point x="415" y="350" type="line"/>
		</contour>
		<contour>
			<point x="165" y="500" type="line"/>
			<point x="165" y="350" type="line"/>
			<point x="315" y="350" type="line"/>
			<point x="315" y="500" type="line"/>
		</contour>
		<contour>
			<point x="65" y="650" type="line"/>
			<point x="65" y="500" type="line"/>
			<point x="165" y="500" type="line"/>
			<point x="165" y="650" type="line"/>
		</contour>
		<contour>
			<point x="415" y="500" type="line"/>
			<point x="415" y="350" type="line"/>
			<point x="565" y="350" type="line"/>
			<point x="565" y="500" type="line"/>
		</contour>
		<contour>
			<point x="315" y="650" type="line"/>
			<point x="315" y="500" type="line"/>
			<point x="415" y="500" type="line"/>
			<point x="415" y="650" type="line"/>
		</contour>
		<contour>
			<point x="165" y="800" type="line"/>
			<point x="165" y="650" type="line"/>
			<point x="315" y="650" type="line"/>
			<point x="315" y="800" type="line"/>
		</contour>
		<contour>
			<point x="315" y="900" type="line"/>
			<point x="315" y="800" type="line"/>
			<point x="415" y="800" type="line"/>
			<point x="415" y="900" type="line"/>
		</contour>
	</outline>
</glyph>
<glyph name="ampersand" format="2">
	<advance width="750"/>
	<unicode hex="0026"/>
	<outline>
		<contour>
			<point x="400" y="400" type="line"/>
			<point x="400" y="150" type="line"/>
			<point x="550" y="150" type="line"/>
			<point x="550" y="400" type="line"/>
		</contour>
		<contour>
			<point x="200" y="150" type="line"/>
			<point x="200" y="0" type="line"/>
			<point x="400" y="0" type="line"/>
			<point x="400" y="150" type="line"/>
		</contour>
		<contour>
			<point x="50" y="400" type="line"/>
			<point x="50" y="150" type="line"/>
			<point x="200" y="150" type="line"/>
			<point x="200" y="400" type="line"/>
		</contour>
		<contour>
			<point x="550" y="150" type="line"/>
			<point x="550" y="0" type="line"/>
			<point x="700" y="0" type="line"/>
			<point x="700" y="150" type="line"/>
		</contour>
		<contour>
			<point x="200" y="500" type="line"/>
			<point x="200" y="400" type="line"/>
			<point x="400" y="400" type="line"/>
			<point x="400" y="500" type="line"/>
		</contour>
		<contour>
			<point x="50" y="650" type="line"/>
			<point x="50" y="500" type="line"/>
			<point x="200" y="500" type="line"/>
			<point x="200" y="650" type="line"/>
		</contour>
		<contour>
			<point x="550" y="500" type="line"/>
			<point x="550" y="400" type="line"/>
			<point x="700" y="400" type="line"/>
			<point x="700" y="500" type="line"/>
		</contour>
		<contour>
			<point x="400" y="600" type="line"/>
			<point x="400" y="500" type="line"/>
			<point x="550" y="500" type="line"/>
			<point x="550" y="600" type="line"/>
		</contour>
		<contour>
			<point x="200" y="800" type="line"/>
			<point x="200" y="650" type="line"/>
			<point x="400" y="650" type="line"/>
			<point x="400" y="800" type="line"/>
		</contour>
	</outline>
</glyph>
<glyph name="asterisk" format="2">
	<advance width="600"/>
	<unicode hex="002A"/>
	<outline>
		<contour>
			<point x="250" y="800" type="line"/>
			<point x="250" y="550" type="line"/>
			<point x="350" y="550" type="line"/>
			<point x="350" y="800" type="line"/>
		</contour>
		<contour>
			<point x="50" y="400" type="line"/>
			<point x="50" y="250" type="line"/>
			<point x="150" y="250" type="line"/>
			<point x="150" y="400" type="line"/>
		</contour>
		<contour>
			<point x="250" y="400" type="line"/>
			<point x="250" y="150" type="line"/>
			<point x="350" y="150" type="line"/>
			<point x="350" y="400" type="line"/>
		</contour>
		<contour>
			<point x="150" y="550" type="line"/>
			<point x="150" y="400" type="line"/>
			<point x="250" y="400" type="line"/>
			<point x="250" y="550" type="line"/>
		</contour>
		<contour>
			<point x="50" y="700" type="line"/>
			<point x="50" y="550" type="line"/>
			<point x="150" y="550" type="line"/>
			<point x="150" y="700" type="line"/>
		</contour>
		<contour>
			<point x="350" y="550" type="line"/>
			<point x="350" y="400" type="line"/>
			<point x="450" y="400" type="line"/>
			<point x="450" y="550" type="line"/>
		</contour>
		<contour>
			<point x="450" y="400" type="line"/>
			<point x="450" y="250" type="line"/>
			<point x="550" y="250" type="line"/>
			<point x="550" y="400" type="line"/>
		</contour>
		<contour>
			<point x="450" y="700" type="line"/>
			<point x="450" y="550" type="line"/>
			<point x="550" y="550" type="line"/>
			<point x="550" y="700" type="line"/>
		</contour>
	</outline>
</glyph>
<glyph name="plus" format="2">
	<advance width="600"/>
	<unicode hex="002B"/>
	<outline>
		<contour>
			<point x="375" y="325" type="line"/>
			<point x="375" y="175" type="line"/>
			<point x="550" y="175" type="line"/>
			<point x="550" y="325" type="line"/>
		</contour>
		<contour>
			<point x="225" y="175" type="line"/>
			<point x="225" y="0" type="line"/>
			<point x="375" y="0" type="line"/>
			<point x="375" y="175" type="line"/>
		</contour>
		<contour>
			<point x="50" y="325" type="line"/>
			<point x="50" y="175" type="line"/>
			<point x="225" y="175" type="line"/>
			<point x="225" y="325" type="line"/>
		</contour>
		<contour>
			<point x="225" y="500" type="line"/>
			<point x="225" y="325" type="line"/>
			<point x="375" y="325" type="line"/>
			<point x="375" y="500" type="line"/>
		</contour>
	</outline>
</glyph>
<glyph name="slash" format="2">
	<advance width="400"/>
	<unicode hex="002F"/>
	<outline>
		<contour>
			<point x="200" y="800" type="line"/>
			<point x="200" y="400" type="line"/>
			<point x="350" y="400" type="line"/>
			<point x="350" y="800" type="line"/>
		</contour>
		<contour>
			<point x="50" y="400" type="line"/>
			<point x="50" y="0" type="line"/>
			<point x="200" y="0" type="line"/>
			<point x="200" y="400" type="line"/>
		</contour>
	</outline>
</glyph>
<glyph name="zero" format="2">
	<advance width="650"/>
	<unicode hex="0030"/>
	<outline>
		<contour>
			<point x="450" y="650" type="line"/>
			<point x="450" y="150" type="line"/>
			<point x="600" y="150" type="line"/>
			<point x="600" y="650" type="line"/>
		</contour>
		<contour>
			<point x="200" y="150" type="line"/>
			<point x="200" y="0" type="line"/>
			<point x="450" y="0" type="line"/>
			<point x="450" y="150" type="line"/>
		</contour>
		<contour>
			<point x="50" y="650" type="line"/>
			<point x="50" y="150" type="line"/>
			<point x="200" y="150" type="line"/>
			<point x="200" y="650" type="line"/>
		</contour>
		<contour>
			<point x="200" y="800" type="line"/>
			<point x="200" y="650" type="line"/>
			<point x="450" y="650" type="line"/>
			<point x="450" y="800" type="line"/>
		</contour>
	</outline>
</glyph>
<glyph name="one" format="2">
	<advance width="400"/>
	<unicode hex="0031"/>
	<outline>
		<contour>
			<point x="200" y="650" type="line"/>
			<point x="200" y="0" type="line"/>
			<point x="350" y="0" type="line"/>
			<point x="350" y="650" type="line"/>
		</contour>
		<contour>
			<point x="50" y="800" type="line"/>
			<point x="50" y="650" type="line"/>
			<point x="200" y="650" type="line"/>
			<point x="200" y="800" type="line"/>
		</contour>
	</outline>
</glyph>
<glyph name="three" format="2">
	<advance width="580"/>
	<unicode hex="0033"/>
	<outline>
		<contour>
			<point x="390" y="350" type="line"/>
			<point x="390" y="150" type="line"/>
			<point x="530" y="150" type="line"/>
			<point x="530" y="350" type="line"/>
		</contour>
		<contour>
			<point x="50" y="300" type="line"/>
			<point x="50" y="150" type="line"/>
			<point x="190" y="150" type="line"/>
			<point x="190" y="300" type="line"/>
		</contour>
		<contour>
			<point x="190" y="150" type="line"/>
			<point x="190" y="0" type="line"/>
			<point x="390" y="0" type="line"/>
			<point x="390" y="150" type="line"/>
		</contour>
		<contour>
			<point x="190" y="450" type="line"/>
			<point x="190" y="350" type="line"/>
			<point x="390" y="350" type="line"/>
			<point x="390" y="450" type="line"/>
		</contour>
		<contour>
			<point x="50" y="650" type="line"/>
			<point x="50" y="500" type="line"/>
			<point x="190" y="500" type="line"/>
			<point x="190" y="650" type="line"/>
		</contour>
		<contour>
			<point x="390" y="650" type="line"/>
			<point x="390" y="450" type="line"/>
			<point x="530" y="450" type="line"/>
			<point x="530" y="650" type="line"/>
		</contour>
		<contour>
			<point x="190" y="800" type="line"/>
			<point x="190" y="650" type="line"/>
			<point x="390" y="650" type="line"/>
			<point x="390" y="800" type="line"/>
		</contour>
	</outline>
</glyph>
<glyph name="four" format="2">
	<advance width="650"/>
	<unicode hex="0034"/>
	<outline>
		<contour>
			<point x="450" y="800" type="line"/>
			<point x="450" y="400" type="line"/>
			<point x="600" y="400" type="line"/>
			<point x="600" y="800" type="line"/>
		</contour>
		<contour>
			<point x="450" y="250" type="line"/>
			<point x="450" y="0" type="line"/>
			<point x="600" y="0" type="line"/>
			<point x="600" y="250" type="line"/>
		</contour>
		<contour>
			<point x="50" y="600" type="line"/>
			<point x="50" y="400" type="line"/>
			<point x="200" y="400" type="line"/>
			<point x="200" y="600" type="line"/>
		</contour>
		<contour>
			<point x="200" y="400" type="line"/>
			<point x="200" y="250" type="line"/>
			<point x="450" y="250" type="line"/>
			<point x="450" y="400" type="line"/>
		</contour>
		<contour>
			<point x="200" y="800" type="line"/>
			<point x="200" y="600" type="line"/>
			<point x="350" y="600" type="line"/>
			<point x="350" y="800" type="line"/>
		</contour>
	</outline>
</glyph>
<glyph name="six" format="2">
	<advance width="600"/>
	<unicode hex="0036"/>
	<outline>
		<contour>
			<point x="400" y="350" type="line"/>
			<point x="400" y="150" type="line"/>
			<point x="550" y="150" type="line"/>
			<point x="550" y="350" type="line"/>
		</contour>
		<contour>
			<point x="200" y="150" type="line"/>
			<point x="200" y="0" type="line"/>
			<point x="400" y="0" type="line"/>
			<point x="400" y="150" type="line"/>
		</contour>
		<contour>
			<point x="50" y="350" type="line"/>
			<point x="50" y="150" type="line"/>
			<point x="200" y="150" type="line"/>
			<point x="200" y="350" type="line"/>
		</contour>
		<contour>
			<point x="200" y="450" type="line"/>
			<point x="200" y="350" type="line"/>
			<point x="400" y="350" type="line"/>
			<point x="400" y="450" type="line"/>
		</contour>
		<contour>
			<point x="50" y="650" type="line"/>
			<point x="50" y="450" type="line"/>
			<point x="200" y="450" type="line"/>
			<point x="200" y="650" type="line"/>
		</contour>
		<contour>
			<point x="200" y="800" type="line"/>
			<point x="200" y="650" type="line"/>
			<point x="400" y="650" type="line"/>
			<point x="400" y="800" type="line"/>
		</contour>
		<contour>
			<point x="400" y="650" type="line"/>
			<point x="400" y="525" type="line"/>
			<point x="550" y="525" type="line"/>
			<point x="550" y="650" type="line"/>
		</contour>
	</outline>
</glyph>
<glyph name="seven" format="2">
	<advance width="600"/>
	<unicode hex="0037"/>
	<outline>
		<contour>
			<point x="50" y="800" type="line"/>
			<point x="50" y="650" type="line"/>
			<point x="400" y="650" type="line"/>
			<point x="400" y="800" type="line"/>
		</contour>
		<contour>
			<point x="100" y="250" type="line"/>
			<point x="100" y="0" type="line"/>
			<point x="250" y="0" type="line"/>
			<point x="250" y="250" type="line"/>
		</contour>
		<contour>
			<point x="250" y="450" type="line"/>
			<point x="250" y="250" type="line"/>
			<point x="400" y="250" type="line"/>
			<point x="400" y="450" type="line"/>
		</contour>
		<contour>
			<point x="400" y="650" type="line"/>
			<point x="400" y="450" type="line"/>
			<point x="550" y="450" type="line"/>
			<point x="550" y="650" type="line"/>
		</contour>
	</outline>
</glyph>
<glyph name="less" format="2">
	<advance width="550"/>
	<unicode hex="003C"/>
	<outline>
		<contour>
			<point x="350" y="500" type="line"/>
			<point x="350" y="400" type="line"/>
			<point x="500" y="400" type="line"/>
			<point x="500" y="500" type="line"/>
		</contour>
		<contour>
			<point x="50" y="300" type="line"/>
			<point x="50" y="200" type="line"/>
			<point x="200" y="200" type="line"/>
			<point x="200" y="300" type="line"/>
		</contour>
		<contour>
			<point x="200" y="200" type="line"/>
			<point x="200" y="100" type="line"/>
			<point x="350" y="100" type="line"/>
			<point x="350" y="200" type="line"/>
		</contour>
		<contour>
			<point x="350" y="100" type="line"/>
			<point x="350" y="0" type="line"/>
			<point x="500" y="0" type="line"/>
			<point x="500" y="100" type="line"/>
		</contour>
		<contour>
			<point x="200" y="400" type="line"/>
			<point x="200" y="300" type="line"/>
			<point x="350" y="300" type="line"/>
			<point x="350" y="400" type="line"/>
		</contour>
	</outline>
</glyph>
<glyph name="question" format="2">
	<advance width="550"/>
	<unicode hex="003F"/>
	<outline>
		<contour>
			<point x="350" y="650" type="line"/>
			<point x="350" y="400" type="line"/>
			<point x="500" y="400" type="line"/>
			<point x="500" y="650" type="line"/>
		</contour>
		<contour>
			<point x="200" y="400" type="line"/>
			<point x="200" y="250" type="line"/>
			<point x="350" y="250" type="line"/>
			<point x="350" y="400" type="line"/>
		</contour>
		<contour>
			<point x="50" y="650" type="line"/>
			<point x="50" y="500" type="line"/>
			<point x="200" y="500" type="line"/>
			<point x="200" y="650" type="line"/>
		</contour>
		<contour>
			<point x="200" y="800" type="line"/>
			<point x="200" y="650" type="line"/>
			<point x="350" y="650" type="line"/>
			<point x="350" y="800" type="line"/>
		</contour>
		<component base="_part.point" xOffset="150"/>
	</outline>
</glyph>
<glyph name="at" format="2">
	<advance width="860"/>
	<unicode hex="0040"/>
	<outline>
		<contour>
			<point x="405" y="100" type="curve"/>
			<point x="405" y="100" type="line"/>
			<point x="490" y="100"/>
			<point x="560" y="170"/>
			<point x="560" y="255" type="curve"/>
			<point x="560" y="339"/>
			<point x="490" y="410"/>
			<point x="405" y="410" type="curve"/>
			<point x="319" y="410"/>
			<point x="250" y="339"/>
			<point x="250" y="255" type="curve"/>
			<point x="250" y="170"/>
			<point x="319" y="100"/>
		</contour>
		<contour>
			<point x="200" y="50" type="line"/>
			<point x="200" y="-100" type="line"/>
			<point x="660" y="-100" type="line"/>
			<point x="660" y="50" type="line"/>
		</contour>
		<contour>
			<point x="50" y="450" type="line"/>
			<point x="50" y="50" type="line"/>
			<point x="200" y="50" type="line"/>
			<point x="200" y="450" type="line"/>
		</contour>
		<contour>
			<point x="560" y="250" type="line"/>
			<point x="560" y="100" type="line"/>
			<point x="660" y="100" type="line"/>
			<point x="660" y="250" type="line"/>
		</contour>
		<contour>
			<point x="200" y="600" type="line"/>
			<point x="200" y="450" type="line"/>
			<point x="660" y="450" type="line"/>
			<point x="660" y="600" type="line"/>
		</contour>
		<contour>
			<point x="660" y="450" type="line"/>
			<point x="660" y="250" type="line"/>
			<point x="810" y="250" type="line"/>
			<point x="810" y="450" type="line"/>
		</contour>
	</outline>
</glyph>
<glyph name="C" format="2">
	<advance width="500"/>
	<unicode hex="0043"/>
	<anchor x="270" y="800" name="top"/>
	<anchor x="200" y="0" name="bottom"/>
	<outline>
		<contour>
			<point x="50" y="650" type="line"/>
			<point x="50" y="150" type="line"/>
			<point x="200" y="150" type="line"/>
			<point x="200" y="650" type="line"/>
		</contour>
		<contour>
			<point x="200" y="150" type="line"/>
			<point x="200" y="0" type="line"/>
			<point x="450" y="0" type="line"/>
			<point x="450" y="150" type="line"/>
		</contour>
		<contour>
			<point x="200" y="800" type="line"/>
			<point x="200" y="650" type="line"/>
			<point x="450" y="650" type="line"/>
			<point x="450" y="800" type="line"/>
		</contour>
	</outline>
</glyph>
<glyph name="D" format="2">
	<advance width="700"/>
	<unicode hex="0044"/>
	<anchor x="350" y="350" name="center"/>
	<anchor x="275" y="0" name="bottom"/>
	<anchor x="275" y="800" name="top"/>
	<outline>
		<contour>
			<point x="50" y="700" type="line"/>
			<point x="50" y="100" type="line"/>
			<point x="200" y="100" type="line"/>
			<point x="200" y="700" type="line"/>
		</contour>
		<contour>
			<point x="200" y="100" type="line"/>
			<point x="200" y="0" type="line"/>
			<point x="350" y="0" type="line"/>
			<point x="350" y="100" type="line"/>
		</contour>
		<contour>
			<point x="350" y="250" type="line"/>
			<point x="350" y="100" type="line"/>
			<point x="500" y="100" type="line"/>
			<point x="500" y="250" type="line"/>
		</contour>
		<contour>
			<point x="500" y="550" type="line"/>
			<point x="500" y="250" type="line"/>
			<point x="650" y="250" type="line"/>
			<point x="650" y="550" type="line"/>
		</contour>
		<contour>
			<point x="200" y="800" type="line"/>
			<point x="200" y="700" type="line"/>
			<point x="350" y="700" type="line"/>
			<point x="350" y="800" type="line"/>
		</contour>
		<contour>
			<point x="350" y="700" type="line"/>
			<point x="350" y="550" type="line"/>
			<point x="500" y="550" type="line"/>
			<point x="500" y="700" type="line"/>
		</contour>
	</outline>
</glyph>
<glyph name="E" format="2">
	<advance width="500"/>
	<unicode hex="0045"/>
	<anchor x="450" y="10" name="ogonek"/>
	<anchor x="275" y="800" name="top"/>
	<anchor x="53" y="800" name="topleft"/>
	<anchor x="250" y="0" name="bottom"/>
	<outline>
		<contour>
			<point x="50" y="350" type="line"/>
			<point x="50" y="150" type="line"/>
			<point x="200" y="150" type="line"/>
			<point x="200" y="350" type="line"/>
		</contour>
		<contour>
			<point x="200" y="150" type="line"/>
			<point x="200" y="0" type="line"/>
			<point x="450" y="0" type="line"/>
			<point x="450" y="150" type="line"/>
		</contour>
		<contour>
			<point x="200" y="500" type="line"/>
			<point x="200" y="350" type="line"/>
			<point x="400" y="350" type="line"/>
			<point x="400" y="500" type="line"/>
		</contour>
		<contour>
			<point x="50" y="650" type="line"/>
			<point x="50" y="500" type="line"/>
			<point x="200" y="500" type="line"/>
			<point x="200" y="650" type="line"/>
		</contour>
		<contour>
			<point x="200" y="800" type="line"/>
			<point x="200" y="650" type="line"/>
			<point x="450" y="650" type="line"/>
			<point x="450" y="800" type="line"/>
		</contour>
	</outline>
</glyph>
<glyph name="F" format="2">
	<advance width="500"/>
	<unicode hex="0046"/>
	<outline>
		<contour>
			<point x="50" y="650" type="line"/>
			<point x="50" y="400" type="line"/>
			<point x="200" y="400" type="line"/>
			<point x="200" y="650" type="line"/>
		</contour>
		<contour>
			<point x="50" y="250" type="line"/>
			<point x="50" y="0" type="line"/>
			<point x="200" y="0" type="line"/>
			<point x="200" y="250" type="line"/>
		</contour>
		<contour>
			<point x="200" y="400" type="line"/>
			<point x="200" y="250" type="line"/>
			<point x="450" y="250" type="line"/>
			<point x="450" y="400" type="line"/>
		</contour>
		<contour>
			<point x="200" y="800" type="line"/>
			<point x="200" y="650" type="line"/>
			<point x="450" y="650" type="line"/>
			<point x="450" y="800" type="line"/>
		</contour>
	</outline>
</glyph>
<glyph name="I" format="2">
	<advance width="250"/>
	<unicode hex="0049"/>
	<anchor x="200" y="0" name="ogonek"/>
	<anchor x="125" y="800" name="top"/>
	<anchor x="5" y="800" name="topleft"/>
	<anchor x="125" y="0" name="bottom"/>
	<outline>
		<contour>
			<point x="50" y="800" type="line"/>
			<point x="50" y="0" type="line"/>
			<point x="200" y="0" type="line"/>
			<point x="200" y="800" type="line"/>
		</contour>
	</outline>
</glyph>
<glyph name="J" format="2">
	<advance width="600"/>
	<unicode hex="004A"/>
	<anchor x="475" y="800" name="top"/>
	<anchor x="308" y="0" name="bottom"/>
	<outline>
		<contour>
			<point x="400" y="800" type="line"/>
			<point x="400" y="150" type="line"/>
			<point x="550" y="150" type="line"/>
			<point x="550" y="800" type="line"/>
		</contour>
		<contour>
			<point x="200" y="150" type="line"/>
			<point x="200" y="0" type="line"/>
			<point x="400" y="0" type="line"/>
			<point x="400" y="150" type="line"/>
		</contour>
		<contour>
			<point x="50" y="400" type="line"/>
			<point x="50" y="150" type="line"/>
			<point x="200" y="150" type="line"/>
			<point x="200" y="400" type="line"/>
		</contour>
	</outline>
</glyph>
<glyph name="L" format="2">
	<advance width="400"/>
	<unicode hex="004C"/>
	<guideline x="50" y="150" angle="90"/>
	<anchor x="218" y="350" name="center"/>
	<anchor x="125" y="800" name="top"/>
	<anchor x="300" y="500" name="topright"/>
	<anchor x="275" y="0" name="bottom"/>
	<outline>
		<contour>
			<point x="50" y="800" type="line"/>
			<point x="50" y="150" type="line"/>
			<point x="200" y="150" type="line"/>
			<point x="200" y="800" type="line"/>
		</contour>
		<contour>
			<point x="200" y="150" type="line"/>
			<point x="200" y="0" type="line"/>
			<point x="400" y="0" type="line"/>
			<point x="400" y="150" type="line"/>
		</contour>
	</outline>
</glyph>
<glyph name="N" format="2">
	<advance width="700"/>
	<unicode hex="004E"/>
	<anchor x="350" y="800" name="top"/>
	<anchor x="350" y="0" name="bottom"/>
	<outline>
		<contour>
			<point x="500" y="800" type="line"/>
			<point x="500" y="150" type="line"/>
			<point x="650" y="150" type="line"/>
			<point x="650" y="800" type="line"/>
		</contour>
		<contour>
			<point x="50" y="650" type="line"/>
			<point x="50" y="0" type="line"/>
			<point x="200" y="0" type="line"/>
			<point x="200" y="650" type="line"/>
		</contour>
		<contour>
			<point x="400" y="150" type="line"/>
			<point x="400" y="0" type="line"/>
			<point x="500" y="0" type="line"/>
			<point x="500" y="150" type="line"/>
		</contour>
		<contour>
			<point x="300" y="650" type="line"/>
			<point x="300" y="150" type="line"/>
			<point x="400" y="150" type="line"/>
			<point x="400" y="650" type="line"/>
		</contour>
		<contour>
			<point x="200" y="800" type="line"/>
			<point x="200" y="650" type="line"/>
			<point x="300" y="650" type="line"/>
			<point x="300" y="800" type="line"/>
		</contour>
	</outline>
</glyph>
<glyph name="O" format="2">
	<advance width="910"/>
	<unicode hex="004F"/>
	<anchor x="455" y="400" name="center"/>
	<anchor x="815" y="10" name="ogonek"/>
	<anchor x="455" y="800" name="top"/>
	<anchor x="885" y="800" name="topright"/>
	<anchor x="25" y="800" name="topleft"/>
	<anchor x="455" y="0" name="bottom"/>
	<outline>
		<contour>
			<point x="455" y="-20" type="curve"/>
			<point x="455" y="-20" type="line"/>
			<point x="689" y="-20"/>
			<point x="875" y="166"/>
			<point x="875" y="400" type="curve"/>
			<point x="875" y="628"/>
			<point x="689" y="820"/>
			<point x="455" y="820" type="curve"/>
			<point x="221" y="820"/>
			<point x="35" y="628"/>
			<point x="35" y="400" type="curve"/>
			<point x="35" y="166"/>
			<point x="221" y="-20"/>
		</contour>
	</outline>
</glyph>
<glyph name="Q" format="2">
	<advance width="979"/>
	<unicode hex="0051"/>
	<outline>
		<contour>
			<point x="794" y="150" type="line"/>
			<point x="794" y="0" type="line"/>
			<point x="944" y="0" type="line"/>
			<point x="944" y="150" type="line"/>
		</contour>
		<component base="O"/>
	</outline>
</glyph>
<glyph name="R" format="2">
	<advance width="650"/>
	<unicode hex="0052"/>
	<anchor x="325" y="800" name="top"/>
	<anchor x="325" y="0" name="bottom"/>
	<outline>
		<contour>
			<point x="50" y="700" type="line"/>
			<point x="50" y="450" type="line"/>
			<point x="200" y="450" type="line"/>
			<point x="200" y="700" type="line"/>
		</contour>
		<contour>
			<point x="50" y="350" type="line"/>
			<point x="50" y="0" type="line"/>
			<point x="200" y="0" type="line"/>
			<point x="200" y="350" type="line"/>
		</contour>
		<contour>
			<point x="450" y="250" type="line"/>
			<point x="450" y="0" type="line"/>
			<point x="600" y="0" type="line"/>
			<point x="600" y="250" type="line"/>
		</contour>
		<contour>
			<point x="200" y="450" type="line"/>
			<point x="200" y="350" type="line"/>
			<point x="300" y="350" type="line"/>
			<point x="300" y="450" type="line"/>
		</contour>
		<contour>
			<point x="300" y="350" type="line"/>
			<point x="300" y="250" type="line"/>
			<point x="450" y="250" type="line"/>
			<point x="450" y="350" type="line"/>
		</contour>
		<contour>
			<point x="300" y="550" type="line"/>
			<point x="300" y="450" type="line"/>
			<point x="450" y="450" type="line"/>
			<point x="450" y="550" type="line"/>
		</contour>
		<contour>
			<point x="200" y="800" type="line"/>
			<point x="200" y="700" type="line"/>
			<point x="450" y="700" type="line"/>
			<point x="450" y="800" type="line"/>
		</contour>
		<contour>
			<point x="450" y="700" type="line"/>
			<point x="450" y="550" type="line"/>
			<point x="600" y="550" type="line"/>
			<point x="600" y="700" type="line"/>
		</contour>
	</outline>
</glyph>
<glyph name="S" format="2">
	<advance width="600"/>
	<unicode hex="0053"/>
	<anchor x="300" y="800" name="top"/>
	<anchor x="300" y="0" name="bottom"/>
	<outline>
		<contour>
			<point x="200" y="800" type="line"/>
			<point x="200" y="650" type="line"/>
			<point x="550" y="650" type="line"/>
			<point x="550" y="800" type="line"/>
		</contour>
		<contour>
			<point x="50" y="150" type="line"/>
			<point x="50" y="0" type="line"/>
			<point x="400" y="0" type="line"/>
			<point x="400" y="150" type="line"/>
		</contour>
		<contour>
			<point x="400" y="350" type="line"/>
			<point x="400" y="150" type="line"/>
			<point x="550" y="150" type="line"/>
			<point x="550" y="350" type="line"/>
		</contour>
		<contour>
			<point x="200" y="500" type="line"/>
			<point x="200" y="350" type="line"/>
			<point x="400" y="350" type="line"/>
			<point x="400" y="500" type="line"/>
		</contour>
		<contour>
			<point x="50" y="650" type="line"/>
			<point x="50" y="500" type="line"/>
			<point x="200" y="500" type="line"/>
			<point x="200" y="650" type="line"/>
		</contour>
	</outline>
</glyph>
<glyph name="T" format="2">
	<advance width="620"/>
	<unicode hex="0054"/>
	<anchor x="310" y="350" name="center"/>
	<anchor x="310" y="0" name="bottom"/>
	<anchor x="310" y="800" name="top"/>
	<outline>
		<contour>
			<point x="235" y="650" type="line"/>
			<point x="235" y="0" type="line"/>
			<point x="385" y="0" type="line"/>
			<point x="385" y="650" type="line"/>
		</contour>
		<contour>
			<point x="50" y="800" type="line"/>
			<point x="50" y="650" type="line"/>
			<point x="235" y="650" type="line"/>
			<point x="235" y="800" type="line"/>
		</contour>
		<contour>
			<point x="385" y="800" type="line"/>
			<point x="385" y="650" type="line"/>
			<point x="570" y="650" type="line"/>
			<point x="570" y="800" type="line"/>
		</contour>
	</outline>
</glyph>
<glyph name="U" format="2">
	<advance width="600"/>
	<unicode hex="0055"/>
	<anchor x="400" y="0" name="ogonek"/>
	<anchor x="300" y="800" name="top"/>
	<anchor x="595" y="800" name="topright"/>
	<anchor x="300" y="0" name="bottom"/>
	<outline>
		<contour>
			<point x="400" y="800" type="line"/>
			<point x="400" y="150" type="line"/>
			<point x="550" y="150" type="line"/>
			<point x="550" y="800" type="line"/>
		</contour>
		<contour>
			<point x="200" y="150" type="line"/>
			<point x="200" y="0" type="line"/>
			<point x="400" y="0" type="line"/>
			<point x="400" y="150" type="line"/>
		</contour>
		<contour>
			<point x="50" y="800" type="line"/>
			<point x="50" y="150" type="line"/>
			<point x="200" y="150" type="line"/>
			<point x="200" y="800" type="line"/>
		</contour>
	</outline>
</glyph>
<glyph name="V" format="2">
	<advance width="550"/>
	<unicode hex="0056"/>
	<anchor x="275" y="800" name="top"/>
	<anchor x="275" y="0" name="bottom"/>
	<outline>
		<contour>
			<point x="350" y="800" type="line"/>
			<point x="350" y="300" type="line"/>
			<point x="500" y="300" type="line"/>
			<point x="500" y="800" type="line"/>
		</contour>
		<contour>
			<point x="200" y="300" type="line"/>
			<point x="200" y="0" type="line"/>
			<point x="350" y="0" type="line"/>
			<point x="350" y="300" type="line"/>
		</contour>
		<contour>
			<point x="50" y="800" type="line"/>
			<point x="50" y="300" type="line"/>
			<point x="200" y="300" type="line"/>
			<point x="200" y="800" type="line"/>
		</contour>
	</outline>
</glyph>
<glyph name="W" format="2">
	<advance width="700"/>
	<unicode hex="0057"/>
	<anchor x="350" y="800" name="top"/>
	<anchor x="350" y="0" name="bottom"/>
	<outline>
		<contour>
			<point x="500" y="800" type="line"/>
			<point x="500" y="300" type="line"/>
			<point x="650" y="300" type="line"/>
			<point x="650" y="800" type="line"/>
		</contour>
		<contour>
			<point x="200" y="300" type="line"/>
			<point x="200" y="0" type="line"/>
			<point x="300" y="0" type="line"/>
			<point x="300" y="300" type="line"/>
		</contour>
		<contour>
			<point x="400" y="300" type="line"/>
			<point x="400" y="0" type="line"/>
			<point x="500" y="0" type="line"/>
			<point x="500" y="300" type="line"/>
		</contour>
		<contour>
			<point x="50" y="800" type="line"/>
			<point x="50" y="300" type="line"/>
			<point x="200" y="300" type="line"/>
			<point x="200" y="800" type="line"/>
		</contour>
		<contour>
			<point x="300" y="800" type="line"/>
			<point x="300" y="300" type="line"/>
			<point x="400" y="300" type="line"/>
			<point x="400" y="800" type="line"/>
		</contour>
	</outline>
</glyph>
<glyph name="X" format="2">
	<advance width="550"/>
	<unicode hex="0058"/>
	<anchor x="275" y="800" name="top"/>
	<anchor x="275" y="0" name="bottom"/>
	<outline>
		<contour>
			<point x="350" y="800" type="line"/>
			<point x="350" y="500" type="line"/>
			<point x="500" y="500" type="line"/>
			<point x="500" y="800" type="line"/>
		</contour>
		<contour>
			<point x="50" y="300" type="line"/>
			<point x="50" y="0" type="line"/>
			<point x="200" y="0" type="line"/>
			<point x="200" y="300" type="line"/>
		</contour>
		<contour>
			<point x="350" y="300" type="line"/>
			<point x="350" y="0" type="line"/>
			<point x="500" y="0" type="line"/>
			<point x="500" y="300" type="line"/>
		</contour>
		<contour>
			<point x="200" y="500" type="line"/>
			<point x="200" y="300" type="line"/>
			<point x="350" y="300" type="line"/>
			<point x="350" y="500" type="line"/>
		</contour>
		<contour>
			<point x="50" y="800" type="line"/>
			<point x="50" y="500" type="line"/>
			<point x="200" y="500" type="line"/>
			<point x="200" y="800" type="line"/>
		</contour>
	</outline>
</glyph>
<glyph name="bracketleft" format="2">
	<advance width="400"/>
	<unicode hex="005B"/>
	<outline>
		<contour>
			<point x="0" y="650" type="line"/>
			<point x="0" y="150" type="line"/>
			<point x="150" y="150" type="line"/>
			<point x="150" y="650" type="line"/>
		</contour>
		<contour>
			<point x="150" y="150" type="line"/>
			<point x="150" y="0" type="line"/>
			<point x="350" y="0" type="line"/>
			<point x="350" y="150" type="line"/>
		</contour>
		<contour>
			<point x="150" y="800" type="line"/>
			<point x="150" y="650" type="line"/>
			<point x="350" y="650" type="line"/>
			<point x="350" y="800" type="line"/>
		</contour>
	</outline>
</glyph>
<glyph name="asciicircum" format="2">
	<advance width="550"/>
	<unicode hex="005E"/>
	<outline>
		<contour>
			<point x="200" y="800" type="line"/>
			<point x="200" y="600" type="line"/>
			<point x="350" y="600" type="line"/>
			<point x="350" y="800" type="line"/>
		</contour>
		<contour>
			<point x="50" y="600" type="line"/>
			<point x="50" y="400" type="line"/>
			<point x="200" y="400" type="line"/>
			<point x="200" y="600" type="line"/>
		</contour>
		<contour>
			<point x="350" y="600" type="line"/>
			<point x="350" y="400" type="line"/>
			<point x="500" y="400" type="line"/>
			<point x="500" y="600" type="line"/>
		</contour>
	</outline>
</glyph>
<glyph name="a" format="2">
	<advance width="551"/>
	<unicode hex="0061"/>
	<anchor x="501" y="0" name="ogonek"/>
	<anchor x="281" y="0" name="bottom"/>
	<anchor x="277" y="500" name="top"/>
	<outline>
		<contour>
			<point x="193" y="-8" type="curve"/>
			<point x="193" y="-8" type="line"/>
			<point x="280" y="-8"/>
			<point x="351" y="63"/>
			<point x="351" y="150" type="curve"/>
			<point x="351" y="236"/>
			<point x="280" y="308"/>
			<point x="193" y="308" type="curve"/>
			<point x="105" y="308"/>
			<point x="35" y="236"/>
			<point x="35" y="150" type="curve"/>
			<point x="35" y="63"/>
			<point x="105" y="-8"/>
		</contour>
		<contour>
			<point x="351" y="350" type="line"/>
			<point x="351" y="0" type="line"/>
			<point x="501" y="0" type="line"/>
			<point x="501" y="350" type="line"/>
		</contour>
		<contour>
			<point x="101" y="500" type="line"/>
			<point x="101" y="350" type="line"/>
			<point x="351" y="350" type="line"/>
			<point x="351" y="500" type="line"/>
		</contour>
	</outline>
</glyph>
<glyph name="b" format="2">
	<advance width="600"/>
	<unicode hex="0062"/>
	<anchor x="125" y="700" name="top"/>
	<anchor x="300" y="0" name="bottom"/>
	<outline>
		<contour>
			<point x="400" y="400" type="line"/>
			<point x="400" y="150" type="line"/>
			<point x="550" y="150" type="line"/>
			<point x="550" y="400" type="line"/>
		</contour>
		<contour>
			<point x="200" y="150" type="line"/>
			<point x="200" y="0" type="line"/>
			<point x="400" y="0" type="line"/>
			<point x="400" y="150" type="line"/>
		</contour>
		<contour>
			<point x="50" y="400" type="line"/>
			<point x="50" y="150" type="line"/>
			<point x="200" y="150" type="line"/>
			<point x="200" y="400" type="line"/>
		</contour>
		<contour>
			<point x="200" y="500" type="line"/>
			<point x="200" y="400" type="line"/>
			<point x="400" y="400" type="line"/>
			<point x="400" y="500" type="line"/>
		</contour>
		<contour>
			<point x="50" y="700" type="line"/>
			<point x="50" y="500" type="line"/>
			<point x="200" y="500" type="line"/>
			<point x="200" y="700" type="line"/>
		</contour>
	</outline>
</glyph>
<glyph name="c" format="2">
	<advance width="500"/>
	<unicode hex="0063"/>
	<anchor x="325" y="500" name="top"/>
	<anchor x="275" y="0" name="bottom"/>
	<outline>
		<contour>
			<point x="50" y="350" type="line"/>
			<point x="50" y="150" type="line"/>
			<point x="200" y="150" type="line"/>
			<point x="200" y="350" type="line"/>
		</contour>
		<contour>
			<point x="200" y="150" type="line"/>
			<point x="200" y="0" type="line"/>
			<point x="450" y="0" type="line"/>
			<point x="450" y="150" type="line"/>
		</contour>
		<contour>
			<point x="200" y="500" type="line"/>
			<point x="200" y="350" type="line"/>
			<point x="450" y="350" type="line"/>
			<point x="450" y="500" type="line"/>
		</contour>
	</outline>
</glyph>
<glyph name="e" format="2">
	<advance width="551"/>
	<unicode hex="0065"/>
	<anchor x="500" y="0" name="ogonek"/>
	<anchor x="301" y="0" name="bottom"/>
	<anchor x="358" y="500" name="top"/>
	<outline>
		<contour>
			<point x="358" y="192" type="curve"/>
			<point x="358" y="192" type="line"/>
			<point x="445" y="192"/>
			<point x="516" y="263"/>
			<point x="516" y="350" type="curve"/>
			<point x="516" y="436"/>
			<point x="445" y="508"/>
			<point x="358" y="508" type="curve"/>
			<point x="270" y="508"/>
			<point x="200" y="436"/>
			<point x="200" y="350" type="curve"/>
			<point x="200" y="263"/>
			<point x="270" y="192"/>
		</contour>
		<contour>
			<point x="50" y="350" type="line"/>
			<point x="50" y="150" type="line"/>
			<point x="200" y="150" type="line"/>
			<point x="200" y="350" type="line"/>
		</contour>
		<contour>
			<point x="200" y="150" type="line"/>
			<point x="200" y="0" type="line"/>
			<point x="500" y="0" type="line"/>
			<point x="500" y="150" type="line"/>
		</contour>
	</outline>
</glyph>
<glyph name="f" format="2">
	<advance width="435"/>
	<unicode hex="0066"/>
	<outline>
		<contour>
			<point x="50" y="350" type="line"/>
			<point x="50" y="0" type="line"/>
			<point x="200" y="0" type="line"/>
			<point x="200" y="350" type="line"/>
		</contour>
		<contour>
			<point x="50" y="550" type="line"/>
			<point x="50" y="450" type="line"/>
			<point x="200" y="450" type="line"/>
			<point x="200" y="550" type="line"/>
		</contour>
		<contour>
			<point x="200" y="450" type="line"/>
			<point x="200" y="350" type="line"/>
			<point x="400" y="350" type="line"/>
			<point x="400" y="450" type="line"/>
		</contour>
		<contour>
			<point x="200" y="700" type="line"/>
			<point x="200" y="550" type="line"/>
			<point x="400" y="550" type="line"/>
			<point x="400" y="700" type="line"/>
		</contour>
	</outline>
</glyph>
<glyph name="g" format="2">
	<advance width="635"/>
	<unicode hex="0067"/>
	<anchor x="355" y="500" name="top"/>
	<anchor x="355" y="-200" name="bottom"/>
	<outline>
		<contour>
			<point x="355" y="195" type="curve"/>
			<point x="355" y="195" type="line"/>
			<point x="440" y="195"/>
			<point x="510" y="265"/>
			<point x="510" y="350" type="curve"/>
			<point x="510" y="434"/>
			<point x="440" y="505"/>
			<point x="355" y="505" type="curve"/>
			<point x="269" y="505"/>
			<point x="200" y="434"/>
			<point x="200" y="350" type="curve"/>
			<point x="200" y="265"/>
			<point x="269" y="195"/>
		</contour>
		<contour>
			<point x="200" y="-198" type="line"/>
			<point x="500" y="-200" type="line"/>
			<point x="500" y="-100" type="line"/>
			<point x="200" y="-98" type="line"/>
		</contour>
		<contour>
			<point x="50" y="350" type="line"/>
			<point x="50" y="150" type="line"/>
			<point x="200" y="150" type="line"/>
			<point x="200" y="350" type="line"/>
		</contour>
		<contour>
			<point x="200" y="150" type="line"/>
			<point x="200" y="0" type="line"/>
			<point x="500" y="0" type="line"/>
			<point x="500" y="150" type="line"/>
		</contour>
		<contour>
			<point x="500" y="0" type="line"/>
			<point x="500" y="-100" type="line"/>
			<point x="600" y="-100" type="line"/>
			<point x="600" y="0" type="line"/>
		</contour>
		<contour>
			<point x="500" y="550" type="line"/>
			<point x="500" y="400" type="line"/>
			<point x="600" y="400" type="line"/>
			<point x="600" y="550" type="line"/>
		</contour>
	</outline>
</glyph>
<glyph name="h" format="2">
	<advance width="550"/>
	<unicode hex="0068"/>
	<anchor x="275" y="400" name="center"/>
	<anchor x="275" y="0" name="bottom"/>
	<anchor x="275" y="700" name="top"/>
	<outline>
		<contour>
			<point x="350" y="400" type="line"/>
			<point x="350" y="0" type="line"/>
			<point x="500" y="0" type="line"/>
			<point x="500" y="400" type="line"/>
		</contour>
		<contour>
			<point x="50" y="400" type="line"/>
			<point x="50" y="0" type="line"/>
			<point x="200" y="0" type="line"/>
			<point x="200" y="400" type="line"/>
		</contour>
		<contour>
			<point x="200" y="500" type="line"/>
			<point x="200" y="400" type="line"/>
			<point x="350" y="400" type="line"/>
			<point x="350" y="500" type="line"/>
		</contour>
		<contour>
			<point x="50" y="700" type="line"/>
			<point x="50" y="500" type="line"/>
			<point x="200" y="500" type="line"/>
			<point x="200" y="700" type="line"/>
		</contour>
	</outline>
</glyph>
<glyph name="j" format="2">
	<advance width="250"/>
	<unicode hex="006A"/>
	<outline>
		<contour>
			<point x="50" y="400" type="line"/>
			<point x="50" y="-50" type="line"/>
			<point x="200" y="-50" type="line"/>
			<point x="200" y="400" type="line"/>
		</contour>
		<contour>
			<point x="-100" y="-50" type="line"/>
			<point x="-100" y="-200" type="line"/>
			<point x="50" y="-200" type="line"/>
			<point x="50" y="-50" type="line"/>
		</contour>
		<contour>
			<point x="50" y="650" type="line"/>
			<point x="50" y="500" type="line"/>
			<point x="200" y="500" type="line"/>
			<point x="200" y="650" type="line"/>
		</contour>
	</outline>
</glyph>
<glyph name="k" format="2">
	<advance width="550"/>
	<unicode hex="006B"/>
	<anchor x="275" y="650" name="top"/>
	<anchor x="275" y="0" name="bottom"/>
	<outline>
		<contour>
			<point x="50" y="675" type="line"/>
			<point x="50" y="325" type="line"/>
			<point x="200" y="325" type="line"/>
			<point x="200" y="675" type="line"/>
		</contour>
		<contour>
			<point x="50" y="175" type="line"/>
			<point x="50" y="0" type="line"/>
			<point x="200" y="0" type="line"/>
			<point x="200" y="175" type="line"/>
		</contour>
		<contour>
			<point x="350" y="175" type="line"/>
			<point x="350" y="0" type="line"/>
			<point x="500" y="0" type="line"/>
			<point x="500" y="175" type="line"/>
		</contour>
		<contour>
			<point x="200" y="325" type="line"/>
			<point x="200" y="175" type="line"/>
			<point x="350" y="175" type="line"/>
			<point x="350" y="325" type="line"/>
		</contour>
		<contour>
			<point x="350" y="500" type="line"/>
			<point x="350" y="325" type="line"/>
			<point x="500" y="325" type="line"/>
			<point x="500" y="500" type="line"/>
		</contour>
	</outline>
</glyph>
<glyph name="l" format="2">
	<advance width="400"/>
	<unicode hex="006C"/>
	<anchor x="200" y="400" name="center"/>
	<anchor x="200" y="800" name="top"/>
	<anchor x="300" y="500" name="topright"/>
	<anchor x="200" y="0" name="bottom"/>
	<outline>
		<contour>
			<point x="50" y="700" type="line"/>
			<point x="50" y="150" type="line"/>
			<point x="200" y="150" type="line"/>
			<point x="200" y="700" type="line"/>
		</contour>
		<contour>
			<point x="200" y="150" type="line"/>
			<point x="200" y="0" type="line"/>
			<point x="400" y="0" type="line"/>
			<point x="400" y="150" type="line"/>
		</contour>
	</outline>
</glyph>
<glyph name="n" format="2">
	<advance width="600"/>
	<unicode hex="006E"/>
	<anchor x="325" y="500" name="top"/>
	<anchor x="325" y="0" name="bottom"/>
	<outline>
		<contour>
			<point x="400" y="350" type="line"/>
			<point x="400" y="0" type="line"/>
			<point x="550" y="0" type="line"/>
			<point x="550" y="350" type="line"/>
		</contour>
		<contour>
			<point x="100" y="350" type="line"/>
			<point x="100" y="0" type="line"/>
			<point x="250" y="0" type="line"/>
			<point x="250" y="350" type="line"/>
		</contour>
		<contour>
			<point x="0" y="500" type="line"/>
			<point x="0" y="350" type="line"/>
			<point x="100" y="350" type="line"/>
			<point x="100" y="500" type="line"/>
		</contour>
		<contour>
			<point x="250" y="500" type="line"/>
			<point x="250" y="350" type="line"/>
			<point x="400" y="350" type="line"/>
			<point x="400" y="500" type="line"/>
		</contour>
	</outline>
</glyph>
<glyph name="o" format="2">
	<advance width="590"/>
	<unicode hex="006F"/>
	<anchor x="295" y="250" name="center"/>
	<anchor x="535" y="10" name="ogonek"/>
	<anchor x="295" y="500" name="top"/>
	<anchor x="575" y="500" name="topright"/>
	<anchor x="295" y="0" name="bottom"/>
	<outline>
		<contour>
			<point x="295" y="-10" type="curve"/>
			<point x="295" y="-10" type="line"/>
			<point x="439" y="-10"/>
			<point x="555" y="106"/>
			<point x="555" y="250" type="curve"/>
			<point x="555" y="391"/>
			<point x="439" y="510"/>
			<point x="295" y="510" type="curve"/>
			<point x="150" y="510"/>
			<point x="35" y="391"/>
			<point x="35" y="250" type="curve"/>
			<point x="35" y="106"/>
			<point x="150" y="-10"/>
		</contour>
	</outline>
</glyph>
<glyph name="p" format="2">
	<advance width="600"/>
	<unicode hex="0070"/>
	<anchor x="300" y="500" name="top"/>
	<anchor x="300" y="0" name="bottom"/>
	<outline>
		<contour>
			<point x="400" y="400" type="line"/>
			<point x="400" y="150" type="line"/>
			<point x="550" y="150" type="line"/>
			<point x="550" y="400" type="line"/>
		</contour>
		<contour>
			<point x="50" y="0" type="line"/>
			<point x="50" y="-200" type="line"/>
			<point x="200" y="-200" type="line"/>
			<point x="200" y="0" type="line"/>
		</contour>
		<contour>
			<point x="200" y="150" type="line"/>
			<point x="200" y="0" type="line"/>
			<point x="400" y="0" type="line"/>
			<point x="400" y="150" type="line"/>
		</contour>
		<contour>
			<point x="50" y="400" type="line"/>
			<point x="50" y="150" type="line"/>
			<point x="200" y="150" type="line"/>
			<point x="200" y="400" type="line"/>
		</contour>
		<contour>
			<point x="200" y="500" type="line"/>
			<point x="200" y="400" type="line"/>
			<point x="400" y="400" type="line"/>
			<point x="400" y="500" type="line"/>
		</contour>
	</outline>
</glyph>
<glyph name="t" format="2">
	<advance width="550"/>
	<unicode hex="0074"/>
	<anchor x="275" y="250" name="center"/>
	<anchor x="225" y="650" name="top"/>
	<anchor x="450" y="500" name="topright"/>
	<anchor x="375" y="0" name="bottom"/>
	<outline>
		<contour>
			<point x="150" y="350" type="line"/>
			<point x="150" y="150" type="line"/>
			<point x="300" y="150" type="line"/>
			<point x="300" y="350" type="line"/>
		</contour>
		<contour>
			<point x="300" y="150" type="line"/>
			<point x="300" y="0" type="line"/>
			<point x="500" y="0" type="line"/>
			<point x="500" y="150" type="line"/>
		</contour>
		<contour>
			<point x="50" y="500" type="line"/>
			<point x="50" y="350" type="line"/>
			<point x="150" y="350" type="line"/>
			<point x="150" y="500" type="line"/>
		</contour>
		<contour>
			<point x="150" y="650" type="line"/>
			<point x="150" y="500" type="line"/>
			<point x="300" y="500" type="line"/>
			<point x="300" y="650" type="line"/>
		</contour>
		<contour>
			<point x="300" y="500" type="line"/>
			<point x="300" y="350" type="line"/>
			<point x="500" y="350" type="line"/>
			<point x="500" y="500" type="line"/>
		</contour>
	</outline>
</glyph>
<glyph name="u" format="2">
	<advance width="600"/>
	<unicode hex="0075"/>
	<anchor x="600" y="0" name="ogonek"/>
	<anchor x="275" y="500" name="top"/>
	<anchor x="580" y="500" name="topright"/>
	<anchor x="275" y="0" name="bottom"/>
	<outline>
		<contour>
			<point x="350" y="500" type="line"/>
			<point x="350" y="150" type="line"/>
			<point x="500" y="150" type="line"/>
			<point x="500" y="500" type="line"/>
		</contour>
		<contour>
			<point x="200" y="150" type="line"/>
			<point x="200" y="0" type="line"/>
			<point x="350" y="0" type="line"/>
			<point x="350" y="150" type="line"/>
		</contour>
		<contour>
			<point x="50" y="500" type="line"/>
			<point x="50" y="150" type="line"/>
			<point x="200" y="150" type="line"/>
			<point x="200" y="500" type="line"/>
		</contour>
		<contour>
			<point x="500" y="150" type="line"/>
			<point x="500" y="0" type="line"/>
			<point x="600" y="0" type="line"/>
			<point x="600" y="150" type="line"/>
		</contour>
	</outline>
</glyph>
<glyph name="v" format="2">
	<advance width="550"/>
	<unicode hex="0076"/>
	<anchor x="275" y="500" name="top"/>
	<anchor x="275" y="0" name="bottom"/>
	<outline>
		<contour>
			<point x="350" y="500" type="line"/>
			<point x="350" y="200" type="line"/>
			<point x="500" y="200" type="line"/>
			<point x="500" y="500" type="line"/>
		</contour>
		<contour>
			<point x="200" y="200" type="line"/>
			<point x="200" y="0" type="line"/>
			<point x="350" y="0" type="line"/>
			<point x="350" y="200" type="line"/>
		</contour>
		<contour>
			<point x="50" y="500" type="line"/>
			<point x="50" y="200" type="line"/>
			<point x="200" y="200" type="line"/>
			<point x="200" y="500" type="line"/>
		</contour>
	</outline>
</glyph>
<glyph name="w" format="2">
	<advance width="700"/>
	<unicode hex="0077"/>
	<anchor x="350" y="500" name="top"/>
	<anchor x="350" y="0" name="bottom"/>
	<outline>
		<contour>
			<point x="500" y="500" type="line"/>
			<point x="500" y="200" type="line"/>
			<point x="650" y="200" type="line"/>
			<point x="650" y="500" type="line"/>
		</contour>
		<contour>
			<point x="200" y="200" type="line"/>
			<point x="200" y="0" type="line"/>
			<point x="300" y="0" type="line"/>
			<point x="300" y="200" type="line"/>
		</contour>
		<contour>
			<point x="50" y="500" type="line"/>
			<point x="50" y="200" type="line"/>
			<point x="200" y="200" type="line"/>
			<point x="200" y="500" type="line"/>
		</contour>
		<contour>
			<point x="400" y="200" type="line"/>
			<point x="400" y="0" type="line"/>
			<point x="500" y="0" type="line"/>
			<point x="500" y="200" type="line"/>
		</contour>
		<contour>
			<point x="300" y="500" type="line"/>
			<point x="300" y="200" type="line"/>
			<point x="400" y="200" type="line"/>
			<point x="400" y="500" type="line"/>
		</contour>
	</outline>
</glyph>
<glyph name="y" format="2">
	<advance width="550"/>
	<unicode hex="0079"/>
	<anchor x="275" y="500" name="top"/>
	<anchor x="275" y="0" name="bottom"/>
	<outline>
		<contour>
			<point x="350" y="500" type="line"/>
			<point x="350" y="150" type="line"/>
			<point x="500" y="150" type="line"/>
			<point x="500" y="500" type="line"/>
		</contour>
		<contour>
			<point x="50" y="0" type="line"/>
			<point x="50" y="-200" type="line"/>
			<point x="200" y="-200" type="line"/>
			<point x="200" y="0" type="line"/>
		</contour>
		<contour>
			<point x="200" y="150" type="line"/>
			<point x="200" y="0" type="line"/>
			<point x="350" y="0" type="line"/>
			<point x="350" y="150" type="line"/>
		</contour>
		<contour>
			<point x="50" y="500" type="line"/>
			<point x="50" y="150" type="line"/>
			<point x="200" y="150" type="line"/>
			<point x="200" y="500" type="line"/>
		</contour>
	</outline>
</glyph>
<glyph name="cent" format="2">
	<advance width="550"/>
	<unicode hex="00A2"/>
	<outline>
		<contour>
			<point x="275" y="350" type="line"/>
			<point x="275" y="150" type="line"/>
			<point x="375" y="150" type="line"/>
			<point x="375" y="350" type="line"/>
		</contour>
		<contour>
			<point x="150" y="150" type="line"/>
			<point x="150" y="0" type="line"/>
			<point x="275" y="0" type="line"/>
			<point x="275" y="150" type="line"/>
		</contour>
		<contour>
			<point x="275" y="0" type="line"/>
			<point x="275" y="-100" type="line"/>
			<point x="375" y="-100" type="line"/>
			<point x="375" y="0" type="line"/>
		</contour>
		<contour>
			<point x="50" y="350" type="line"/>
			<point x="50" y="150" type="line"/>
			<point x="150" y="150" type="line"/>
			<point x="150" y="350" type="line"/>
		</contour>
		<contour>
			<point x="375" y="150" type="line"/>
			<point x="375" y="0" type="line"/>
			<point x="500" y="0" type="line"/>
			<point x="500" y="150" type="line"/>
		</contour>
		<contour>
			<point x="150" y="500" type="line"/>
			<point x="150" y="350" type="line"/>
			<point x="275" y="350" type="line"/>
			<point x="275" y="500" type="line"/>
		</contour>
		<contour>
			<point x="275" y="600" type="line"/>
			<point x="275" y="500" type="line"/>
			<point x="375" y="500" type="line"/>
			<point x="375" y="600" type="line"/>
		</contour>
		<contour>
			<point x="375" y="500" type="line"/>
			<point x="375" y="350" type="line"/>
			<point x="500" y="350" type="line"/>
			<point x="500" y="500" type="line"/>
		</contour>
	</outline>
</glyph>
<glyph name="sterling" format="2">
	<advance width="750"/>
	<unicode hex="00A3"/>
	<outline>
		<contour>
			<point x="200" y="150" type="line"/>
			<point x="200" y="0" type="line"/>
			<point x="600" y="0" type="line"/>
			<point x="600" y="150" type="line"/>
		</contour>
		<contour>
			<point x="50" y="250" type="line"/>
			<point x="50" y="150" type="line"/>
			<point x="200" y="150" type="line"/>
			<point x="200" y="250" type="line"/>
		</contour>
		<contour>
			<point x="50" y="500" type="line"/>
			<point x="50" y="400" type="line"/>
			<point x="200" y="400" type="line"/>
			<point x="200" y="500" type="line"/>
		</contour>
		<contour>
			<point x="200" y="400" type="line"/>
			<point x="200" y="250" type="line"/>
			<point x="300" y="250" type="line"/>
			<point x="300" y="400" type="line"/>
		</contour>
		<contour>
			<point x="600" y="300" type="line"/>
			<point x="600" y="150" type="line"/>
			<point x="700" y="150" type="line"/>
			<point x="700" y="300" type="line"/>
		</contour>
		<contour>
			<point x="200" y="650" type="line"/>
			<point x="200" y="500" type="line"/>
			<point x="300" y="500" type="line"/>
			<point x="300" y="650" type="line"/>
		</contour>
		<contour>
			<point x="300" y="500" type="line"/>
			<point x="300" y="400" type="line"/>
			<point x="450" y="400" type="line"/>
			<point x="450" y="500" type="line"/>
		</contour>
		<contour>
			<point x="300" y="800" type="line"/>
			<point x="300" y="650" type="line"/>
			<point x="500" y="650" type="line"/>
			<point x="500" y="800" type="line"/>
		</contour>
		<contour>
			<point x="500" y="650" type="line"/>
			<point x="500" y="550" type="line"/>
			<point x="600" y="550" type="line"/>
			<point x="600" y="650" type="line"/>
		</contour>
	</outline>
</glyph>
<glyph name="currency" format="2">
	<advance width="700"/>
	<unicode hex="00A4"/>
	<outline>
		<contour>
			<point x="450" y="400" type="line"/>
			<point x="450" y="200" type="line"/>
			<point x="600" y="200" type="line"/>
			<point x="600" y="400" type="line"/>
		</contour>
		<contour>
			<point x="50" y="100" type="line"/>
			<point x="50" y="0" type="line"/>
			<point x="150" y="0" type="line"/>
			<point x="150" y="100" type="line"/>
		</contour>
		<contour>
			<point x="100" y="400" type="line"/>
			<point x="100" y="200" type="line"/>
			<point x="250" y="200" type="line"/>
			<point x="250" y="400" type="line"/>
		</contour>
		<contour>
			<point x="250" y="200" type="line"/>
			<point x="250" y="50" type="line"/>
			<point x="450" y="50" type="line"/>
			<point x="450" y="200" type="line"/>
		</contour>
		<contour>
			<point x="550" y="100" type="line"/>
			<point x="550" y="0" type="line"/>
			<point x="650" y="0" type="line"/>
			<point x="650" y="100" type="line"/>
		</contour>
		<contour>
			<point x="50" y="600" type="line"/>
			<point x="50" y="500" type="line"/>
			<point x="150" y="500" type="line"/>
			<point x="150" y="600" type="line"/>
		</contour>
		<contour>
			<point x="250" y="550" type="line"/>
			<point x="250" y="400" type="line"/>
			<point x="450" y="400" type="line"/>
			<point x="450" y="550" type="line"/>
		</contour>
		<contour>
			<point x="550" y="600" type="line"/>
			<point x="550" y="500" type="line"/>
			<point x="650" y="500" type="line"/>
			<point x="650" y="600" type="line"/>
		</contour>
	</outline>
</glyph>
<glyph name="yen" format="2">
	<advance width="750"/>
	<unicode hex="00A5"/>
	<outline>
		<contour>
			<point x="550" y="800" type="line"/>
			<point x="550" y="650" type="line"/>
			<point x="700" y="650" type="line"/>
			<point x="700" y="800" type="line"/>
		</contour>
		<contour>
			<point x="100" y="200" type="line"/>
			<point x="100" y="100" type="line"/>
			<point x="300" y="100" type="line"/>
			<point x="300" y="200" type="line"/>
		</contour>
		<contour>
			<point x="300" y="100" type="line"/>
			<point x="300" y="0" type="line"/>
			<point x="450" y="0" type="line"/>
			<point x="450" y="100" type="line"/>
		</contour>
		<contour>
			<point x="100" y="400" type="line"/>
			<point x="100" y="300" type="line"/>
			<point x="300" y="300" type="line"/>
			<point x="300" y="400" type="line"/>
		</contour>
		<contour>
			<point x="300" y="300" type="line"/>
			<point x="300" y="200" type="line"/>
			<point x="450" y="200" type="line"/>
			<point x="450" y="300" type="line"/>
		</contour>
		<contour>
			<point x="450" y="200" type="line"/>
			<point x="450" y="100" type="line"/>
			<point x="650" y="100" type="line"/>
			<point x="650" y="200" type="line"/>
		</contour>
		<contour>
			<point x="300" y="500" type="line"/>
			<point x="300" y="400" type="line"/>
			<point x="450" y="400" type="line"/>
			<point x="450" y="500" type="line"/>
		</contour>
		<contour>
			<point x="200" y="650" type="line"/>
			<point x="200" y="500" type="line"/>
			<point x="300" y="500" type="line"/>
			<point x="300" y="650" type="line"/>
		</contour>
		<contour>
			<point x="450" y="400" type="line"/>
			<point x="450" y="300" type="line"/>
			<point x="650" y="300" type="line"/>
			<point x="650" y="400" type="line"/>
		</contour>
		<contour>
			<point x="50" y="800" type="line"/>
			<point x="50" y="650" type="line"/>
			<point x="200" y="650" type="line"/>
			<point x="200" y="800" type="line"/>
		</contour>
		<contour>
			<point x="450" y="650" type="line"/>
			<point x="450" y="500" type="line"/>
			<point x="550" y="500" type="line"/>
			<point x="550" y="650" type="line"/>
		</contour>
	</outline>
</glyph>
<glyph name="brokenbar" format="2">
	<advance width="250"/>
	<unicode hex="00A6"/>
	<outline>
		<contour>
			<point x="50" y="800" type="line"/>
			<point x="50" y="400" type="line"/>
			<point x="200" y="400" type="line"/>
			<point x="200" y="800" type="line"/>
		</contour>
		<contour>
			<point x="50" y="300" type="line"/>
			<point x="50" y="-100" type="line"/>
			<point x="200" y="-100" type="line"/>
			<point x="200" y="300" type="line"/>
		</contour>
	</outline>
</glyph>
<glyph name="section" format="2">
	<advance width="600"/>
	<unicode hex="00A7"/>
	<outline>
		<contour>
			<point x="200" y="800" type="line"/>
			<point x="200" y="650" type="line"/>
			<point x="550" y="650" type="line"/>
			<point x="550" y="800" type="line"/>
		</contour>
		<contour>
			<point x="50" y="150" type="line"/>
			<point x="50" y="0" type="line"/>
			<point x="400" y="0" type="line"/>
			<point x="400" y="150" type="line"/>
		</contour>
		<contour>
			<point x="50" y="450" type="line"/>
			<point x="50" y="350" type="line"/>
			<point x="200" y="350" type="line"/>
			<point x="200" y="450" type="line"/>
		</contour>
		<contour>
			<point x="200" y="350" type="line"/>
			<point x="200" y="250" type="line"/>
			<point x="400" y="250" type="line"/>
			<point x="400" y="350" type="line"/>
		</contour>
		<contour>
			<point x="400" y="250" type="line"/>
			<point x="400" y="150" type="line"/>
			<point x="550" y="150" type="line"/>
			<point x="550" y="250" type="line"/>
		</contour>
		<contour>
			<point x="50" y="650" type="line"/>
			<point x="50" y="550" type="line"/>
			<point x="200" y="550" type="line"/>
			<point x="200" y="650" type="line"/>
		</contour>
		<contour>
			<point x="200" y="550" type="line"/>
			<point x="200" y="450" type="line"/>
			<point x="400" y="450" type="line"/>
			<point x="400" y="550" type="line"/>
		</contour>
		<contour>
			<point x="400" y="450" type="line"/>
			<point x="400" y="350" type="line"/>
			<point x="550" y="350" type="line"/>
			<point x="550" y="450" type="line"/>
		</contour>
	</outline>
</glyph>
<glyph name="copyright" format="2">
	<advance width="1000"/>
	<unicode hex="00A9"/>
	<outline>
		<contour>
			<point x="800" y="600" type="line"/>
			<point x="800" y="200" type="line"/>
			<point x="950" y="200" type="line"/>
			<point x="950" y="600" type="line"/>
		</contour>
		<contour>
			<point x="200" y="200" type="line"/>
			<point x="200" y="100" type="line"/>
			<point x="300" y="100" type="line"/>
			<point x="300" y="200" type="line"/>
		</contour>
		<contour>
			<point x="50" y="600" type="line"/>
			<point x="50" y="200" type="line"/>
			<point x="200" y="200" type="line"/>
			<point x="200" y="600" type="line"/>
		</contour>
		<contour>
			<point x="300" y="100" type="line"/>
			<point x="300" y="-50" type="line"/>
			<point x="700" y="-50" type="line"/>
			<point x="700" y="100" type="line"/>
		</contour>
		<contour>
			<point x="300" y="450" type="line"/>
			<point x="300" y="350" type="line"/>
			<point x="390" y="350" type="line"/>
			<point x="390" y="450" type="line"/>
		</contour>
		<contour>
			<point x="390" y="350" type="line"/>
			<point x="390" y="200" type="line"/>
			<point x="650" y="200" type="line"/>
			<point x="650" y="350" type="line"/>
		</contour>
		<contour>
			<point x="200" y="700" type="line"/>
			<point x="200" y="600" type="line"/>
			<point x="300" y="600" type="line"/>
			<point x="300" y="700" type="line"/>
		</contour>
		<contour>
			<point x="700" y="200" type="line"/>
			<point x="700" y="100" type="line"/>
			<point x="800" y="100" type="line"/>
			<point x="800" y="200" type="line"/>
		</contour>
		<contour>
			<point x="390" y="600" type="line"/>
			<point x="390" y="450" type="line"/>
			<point x="650" y="450" type="line"/>
			<point x="650" y="600" type="line"/>
		</contour>
		<contour>
			<point x="300" y="850" type="line"/>
			<point x="300" y="700" type="line"/>
			<point x="700" y="700" type="line"/>
			<point x="700" y="850" type="line"/>
		</contour>
		<contour>
			<point x="700" y="700" type="line"/>
			<point x="700" y="600" type="line"/>
			<point x="800" y="600" type="line"/>
			<point x="800" y="700" type="line"/>
		</contour>
	</outline>
</glyph>
<glyph name="guillemotleft" format="2">
	<advance width="550"/>
	<unicode hex="00AB"/>
	<outline>
		<contour>
			<point x="400" y="475" type="line"/>
			<point x="400" y="325" type="line"/>
			<point x="500" y="325" type="line"/>
			<point x="500" y="475" type="line"/>
		</contour>
		<contour>
			<point x="50" y="325" type="line"/>
			<point x="50" y="175" type="line"/>
			<point x="150" y="175" type="line"/>
			<point x="150" y="325" type="line"/>
		</contour>
		<contour>
			<point x="150" y="175" type="line"/>
			<point x="150" y="25" type="line"/>
			<point x="250" y="25" type="line"/>
			<point x="250" y="175" type="line"/>
		</contour>
		<contour>
			<point x="150" y="475" type="line"/>
			<point x="150" y="325" type="line"/>
			<point x="250" y="325" type="line"/>
			<point x="250" y="475" type="line"/>
		</contour>
		<contour>
			<point x="300" y="325" type="line"/>
			<point x="300" y="175" type="line"/>
			<point x="400" y="175" type="line"/>
			<point x="400" y="325" type="line"/>
		</contour>
		<contour>
			<point x="400" y="175" type="line"/>
			<point x="400" y="25" type="line"/>
			<point x="500" y="25" type="line"/>
			<point x="500" y="175" type="line"/>
		</contour>
	</outline>
</glyph>
<glyph name="logicalnot" format="2">
	<advance width="500"/>
	<unicode hex="00AC"/>
	<outline>
		<contour>
			<point x="50" y="325" type="line"/>
			<point x="50" y="175" type="line"/>
			<point x="350" y="175" type="line"/>
			<point x="350" y="325" type="line"/>
		</contour>
		<contour>
			<point x="350" y="175" type="line"/>
			<point x="350" y="75" type="line"/>
			<point x="450" y="75" type="line"/>
			<point x="450" y="175" type="line"/>
		</contour>
	</outline>
</glyph>
<glyph name="plusminus" format="2">
	<advance width="550"/>
	<unicode hex="00B1"/>
	<outline>
		<contour>
			<point x="50" y="225" type="line"/>
			<point x="50" y="75" type="line"/>
			<point x="500" y="75" type="line"/>
			<point x="500" y="225" type="line"/>
		</contour>
		<contour>
			<point x="50" y="540" type="line"/>
			<point x="50" y="420" type="line"/>
			<point x="215" y="420" type="line"/>
			<point x="215" y="540" type="line"/>
		</contour>
		<contour>
			<point x="215" y="420" type="line"/>
			<point x="215" y="300" type="line"/>
			<point x="335" y="300" type="line"/>
			<point x="335" y="420" type="line"/>
		</contour>
		<contour>
			<point x="215" y="660" type="line"/>
			<point x="215" y="540" type="line"/>
			<point x="335" y="540" type="line"/>
			<point x="335" y="660" type="line"/>
		</contour>
		<contour>
			<point x="335" y="540" type="line"/>
			<point x="335" y="420" type="line"/>
			<point x="500" y="420" type="line"/>
			<point x="500" y="540" type="line"/>
		</contour>
	</outline>
</glyph>
<glyph name="paragraph" format="2">
	<advance width="800"/>
	<unicode hex="00B6"/>
	<outline>
		<contour>
			<point x="193" y="392" type="curve"/>
			<point x="193" y="392" type="line"/>
			<point x="280" y="392"/>
			<point x="351" y="463"/>
			<point x="351" y="550" type="curve"/>
			<point x="351" y="636"/>
			<point x="280" y="708"/>
			<point x="193" y="708" type="curve"/>
			<point x="105" y="708"/>
			<point x="35" y="636"/>
			<point x="35" y="550" type="curve"/>
			<point x="35" y="463"/>
			<point x="105" y="392"/>
		</contour>
		<contour>
			<point x="350" y="700" type="line"/>
			<point x="350" y="0" type="line"/>
			<point x="500" y="0" type="line"/>
			<point x="500" y="700" type="line"/>
		</contour>
		<contour>
			<point x="600" y="700" type="line"/>
			<point x="600" y="0" type="line"/>
			<point x="750" y="0" type="line"/>
			<point x="750" y="700" type="line"/>
		</contour>
	</outline>
</glyph>
<glyph name="AE" format="2">
	<advance width="850"/>
	<unicode hex="00C6"/>
	<anchor x="475" y="800" name="top"/>
	<anchor x="475" y="0" name="bottom"/>
	<outline>
		<contour>
			<point x="400" y="650" type="line"/>
			<point x="400" y="475" type="line"/>
			<point x="550" y="475" type="line"/>
			<point x="550" y="650" type="line"/>
		</contour>
		<contour>
			<point x="50" y="325" type="line"/>
			<point x="50" y="0" type="line"/>
			<point x="200" y="0" type="line"/>
			<point x="200" y="325" type="line"/>
		</contour>
		<contour>
			<point x="400" y="325" type="line"/>
			<point x="400" y="150" type="line"/>
			<point x="550" y="150" type="line"/>
			<point x="550" y="325" type="line"/>
		</contour>
		<contour>
			<point x="200" y="475" type="line"/>
			<point x="200" y="325" type="line"/>
			<point x="400" y="325" type="line"/>
			<point x="400" y="475" type="line"/>
		</contour>
		<contour>
			<point x="550" y="150" type="line"/>
			<point x="550" y="0" type="line"/>
			<point x="800" y="0" type="line"/>
			<point x="800" y="150" type="line"/>
		</contour>
		<contour>
			<point x="50" y="650" type="line"/>
			<point x="50" y="475" type="line"/>
			<point x="200" y="475" type="line"/>
			<point x="200" y="650" type="line"/>
		</contour>
		<contour>
			<point x="550" y="475" type="line"/>
			<point x="550" y="325" type="line"/>
			<point x="750" y="325" type="line"/>
			<point x="750" y="475" type="line"/>
		</contour>
		<contour>
			<point x="200" y="800" type="line"/>
			<point x="200" y="650" type="line"/>
			<point x="400" y="650" type="line"/>
			<point x="400" y="800" type="line"/>
		</contour>
		<contour>
			<point x="550" y="800" type="line"/>
			<point x="550" y="650" type="line"/>
			<point x="800" y="650" type="line"/>
			<point x="800" y="800" type="line"/>
		</contour>
	</outline>
</glyph>
<glyph name="Ccedilla" format="2">
	<advance width="600"/>
	<unicode hex="00C7"/>
	<outline>
		<contour>
			<point x="50" y="650" type="line"/>
			<point x="50" y="150" type="line"/>
			<point x="200" y="150" type="line"/>
			<point x="200" y="650" type="line"/>
		</contour>
		<contour>
			<point x="300" y="-100" type="line"/>
			<point x="300" y="-200" type="line"/>
			<point x="450" y="-200" type="line"/>
			<point x="450" y="-100" type="line"/>
		</contour>
		<contour>
			<point x="200" y="150" type="line"/>
			<point x="200" y="0" type="line"/>
			<point x="450" y="0" type="line"/>
			<point x="450" y="150" type="line"/>
		</contour>
		<contour>
			<point x="450" y="0" type="line"/>
			<point x="450" y="-100" type="line"/>
			<point x="600" y="-100" type="line"/>
			<point x="600" y="0" type="line"/>
		</contour>
		<contour>
			<point x="200" y="800" type="line"/>
			<point x="200" y="650" type="line"/>
			<point x="525" y="650" type="line"/>
			<point x="525" y="800" type="line"/>
		</contour>
	</outline>
</glyph>
<glyph name="Eth" format="2">
	<advance width="800"/>
	<unicode hex="00D0"/>
	<outline>
		<contour>
			<point x="600" y="550" type="line"/>
			<point x="600" y="250" type="line"/>
			<point x="750" y="250" type="line"/>
			<point x="750" y="550" type="line"/>
		</contour>
		<contour>
			<point x="300" y="100" type="line"/>
			<point x="300" y="0" type="line"/>
			<point x="450" y="0" type="line"/>
			<point x="450" y="100" type="line"/>
		</contour>
		<contour>
			<point x="150" y="350" type="line"/>
			<point x="150" y="100" type="line"/>
			<point x="300" y="100" type="line"/>
			<point x="300" y="350" type="line"/>
		</contour>
		<contour>
			<point x="450" y="250" type="line"/>
			<point x="450" y="100" type="line"/>
			<point x="600" y="100" type="line"/>
			<point x="600" y="250" type="line"/>
		</contour>
		<contour>
			<point x="50" y="450" type="line"/>
			<point x="50" y="350" type="line"/>
			<point x="150" y="350" type="line"/>
			<point x="150" y="450" type="line"/>
		</contour>
		<contour>
			<point x="300" y="450" type="line"/>
			<point x="300" y="350" type="line"/>
			<point x="400" y="350" type="line"/>
			<point x="400" y="450" type="line"/>
		</contour>
		<contour>
			<point x="150" y="700" type="line"/>
			<point x="150" y="450" type="line"/>
			<point x="300" y="450" type="line"/>
			<point x="300" y="700" type="line"/>
		</contour>
		<contour>
			<point x="300" y="800" type="line"/>
			<point x="300" y="700" type="line"/>
			<point x="450" y="700" type="line"/>
			<point x="450" y="800" type="line"/>
		</contour>
		<contour>
			<point x="450" y="700" type="line"/>
			<point x="450" y="550" type="line"/>
			<point x="600" y="550" type="line"/>
			<point x="600" y="700" type="line"/>
		</contour>
	</outline>
</glyph>
<glyph name="multiply" format="2">
	<advance width="700"/>
	<unicode hex="00D7"/>
	<outline>
		<contour>
			<point x="500" y="600" type="line"/>
			<point x="500" y="450" type="line"/>
			<point x="650" y="450" type="line"/>
			<point x="650" y="600" type="line"/>
		</contour>
		<contour>
			<point x="50" y="150" type="line"/>
			<point x="50" y="0" type="line"/>
			<point x="200" y="0" type="line"/>
			<point x="200" y="150" type="line"/>
		</contour>
		<contour>
			<point x="200" y="250" type="line"/>
			<point x="200" y="150" type="line"/>
			<point x="300" y="150" type="line"/>
			<point x="300" y="250" type="line"/>
		</contour>
		<contour>
			<point x="200" y="450" type="line"/>
			<point x="200" y="350" type="line"/>
			<point x="300" y="350" type="line"/>
			<point x="300" y="450" type="line"/>
		</contour>
		<contour>
			<point x="300" y="350" type="line"/>
			<point x="300" y="250" type="line"/>
			<point x="400" y="250" type="line"/>
			<point x="400" y="350" type="line"/>
		</contour>
		<contour>
			<point x="400" y="250" type="line"/>
			<point x="400" y="150" type="line"/>
			<point x="500" y="150" type="line"/>
			<point x="500" y="250" type="line"/>
		</contour>
		<contour>
			<point x="50" y="600" type="line"/>
			<point x="50" y="450" type="line"/>
			<point x="200" y="450" type="line"/>
			<point x="200" y="600" type="line"/>
		</contour>
		<contour>
			<point x="500" y="150" type="line"/>
			<point x="500" y="0" type="line"/>
			<point x="650" y="0" type="line"/>
			<point x="650" y="150" type="line"/>
		</contour>
		<contour>
			<point x="400" y="450" type="line"/>
			<point x="400" y="350" type="line"/>
			<point x="500" y="350" type="line"/>
			<point x="500" y="450" type="line"/>
		</contour>
	</outline>
</glyph>
<glyph name="Oslash" format="2">
	<advance width="1002"/>
	<unicode hex="00D8"/>
	<outline>
		<contour>
			<point x="524" y="-20" type="curve"/>
			<point x="524" y="-20" type="line"/>
			<point x="758" y="-20"/>
			<point x="944" y="166"/>
			<point x="944" y="400" type="curve"/>
			<point x="944" y="628"/>
			<point x="758" y="820"/>
			<point x="524" y="820" type="curve"/>
			<point x="290" y="820"/>
			<point x="104" y="628"/>
			<point x="104" y="400" type="curve"/>
			<point x="104" y="166"/>
			<point x="290" y="-20"/>
		</contour>
		<contour>
			<point x="35" y="150" type="line"/>
			<point x="35" y="0" type="line"/>
			<point x="185" y="0" type="line"/>
			<point x="185" y="150" type="line"/>
		</contour>
		<contour>
			<point x="817" y="850" type="line"/>
			<point x="817" y="700" type="line"/>
			<point x="967" y="700" type="line"/>
			<point x="967" y="850" type="line"/>
		</contour>
	</outline>
</glyph>
<glyph name="Thorn" format="2">
	<advance width="630"/>
	<unicode hex="00DE"/>
	<outline>
		<contour>
			<point x="65" y="800" type="line"/>
			<point x="65" y="600" type="line"/>
			<point x="215" y="600" type="line"/>
			<point x="215" y="800" type="line"/>
		</contour>
		<contour>
			<point x="65" y="200" type="line"/>
			<point x="65" y="0" type="line"/>
			<point x="215" y="0" type="line"/>
			<point x="215" y="200" type="line"/>
		</contour>
		<contour>
			<point x="215" y="300" type="line"/>
			<point x="215" y="200" type="line"/>
			<point x="415" y="200" type="line"/>
			<point x="415" y="300" type="line"/>
		</contour>
		<contour>
			<point x="65" y="500" type="line"/>
			<point x="65" y="300" type="line"/>
			<point x="215" y="300" type="line"/>
			<point x="215" y="500" type="line"/>
		</contour>
		<contour>
			<point x="215" y="600" type="line"/>
			<point x="215" y="500" type="line"/>
			<point x="415" y="500" type="line"/>
			<point x="415" y="600" type="line"/>
		</contour>
		<contour>
			<point x="415" y="500" type="line"/>
			<point x="415" y="300" type="line"/>
			<point x="565" y="300" type="line"/>
			<point x="565" y="500" type="line"/>
		</contour>
	</outline>
</glyph>
<glyph name="germandbls" format="2">
	<advance width="650"/>
	<unicode hex="00DF"/>
	<outline>
		<contour>
			<point x="50" y="650" type="line"/>
			<point x="50" y="0" type="line"/>
			<point x="200" y="0" type="line"/>
			<point x="200" y="650" type="line"/>
		</contour>
		<contour>
			<point x="300" y="150" type="line"/>
			<point x="300" y="0" type="line"/>
			<point x="450" y="0" type="line"/>
			<point x="450" y="150" type="line"/>
		</contour>
		<contour>
			<point x="450" y="400" type="line"/>
			<point x="450" y="150" type="line"/>
			<point x="600" y="150" type="line"/>
			<point x="600" y="400" type="line"/>
		</contour>
		<contour>
			<point x="300" y="500" type="line"/>
			<point x="300" y="400" type="line"/>
			<point x="450" y="400" type="line"/>
			<point x="450" y="500" type="line"/>
		</contour>
		<contour>
			<point x="200" y="800" type="line"/>
			<point x="200" y="650" type="line"/>
			<point x="450" y="650" type="line"/>
			<point x="450" y="800" type="line"/>
		</contour>
		<contour>
			<point x="450" y="650" type="line"/>
			<point x="450" y="500" type="line"/>
			<point x="600" y="500" type="line"/>
			<point x="600" y="650" type="line"/>
		</contour>
	</outline>
</glyph>
<glyph name="ae" format="2">
	<advance width="851"/>
	<unicode hex="00E6"/>
	<anchor x="426" y="500" name="top"/>
	<anchor x="426" y="0" name="bottom"/>
	<outline>
		<contour>
			<point x="658" y="192" type="curve"/>
			<point x="658" y="192" type="line"/>
			<point x="745" y="192"/>
			<point x="816" y="263"/>
			<point x="816" y="350" type="curve"/>
			<point x="816" y="436"/>
			<point x="745" y="508"/>
			<point x="658" y="508" type="curve"/>
			<point x="570" y="508"/>
			<point x="500" y="436"/>
			<point x="500" y="350" type="curve"/>
			<point x="500" y="263"/>
			<point x="570" y="192"/>
		</contour>
		<contour>
			<point x="193" y="-8" type="curve"/>
			<point x="193" y="-8" type="line"/>
			<point x="280" y="-8"/>
			<point x="351" y="63"/>
			<point x="351" y="150" type="curve"/>
			<point x="351" y="236"/>
			<point x="280" y="308"/>
			<point x="193" y="308" type="curve"/>
			<point x="105" y="308"/>
			<point x="35" y="236"/>
			<point x="35" y="150" type="curve"/>
			<point x="35" y="63"/>
			<point x="105" y="-8"/>
		</contour>
		<contour>
			<point x="101" y="500" type="line"/>
			<point x="101" y="350" type="line"/>
			<point x="351" y="350" type="line"/>
			<point x="351" y="500" type="line"/>
		</contour>
		<contour>
			<point x="350" y="350" type="line"/>
			<point x="350" y="150" type="line"/>
			<point x="500" y="150" type="line"/>
			<point x="500" y="350" type="line"/>
		</contour>
		<contour>
			<point x="500" y="150" type="line"/>
			<point x="500" y="0" type="line"/>
			<point x="800" y="0" type="line"/>
			<point x="800" y="150" type="line"/>
		</contour>
	</outline>
</glyph>
<glyph name="eth" format="2">
	<advance width="600"/>
	<unicode hex="00F0"/>
	<outline>
		<contour>
			<point x="400" y="400" type="line"/>
			<point x="400" y="150" type="line"/>
			<point x="550" y="150" type="line"/>
			<point x="550" y="400" type="line"/>
		</contour>
		<contour>
			<point x="200" y="150" type="line"/>
			<point x="200" y="0" type="line"/>
			<point x="400" y="0" type="line"/>
			<point x="400" y="150" type="line"/>
		</contour>
		<contour>
			<point x="50" y="400" type="line"/>
			<point x="50" y="150" type="line"/>
			<point x="200" y="150" type="line"/>
			<point x="200" y="400" type="line"/>
		</contour>
		<contour>
			<point x="200" y="500" type="line"/>
			<point x="200" y="400" type="line"/>
			<point x="400" y="400" type="line"/>
			<point x="400" y="500" type="line"/>
		</contour>
		<contour>
			<point x="100" y="700" type="line"/>
			<point x="100" y="600" type="line"/>
			<point x="250" y="600" type="line"/>
			<point x="250" y="700" type="line"/>
		</contour>
		<contour>
			<point x="400" y="700" type="line"/>
			<point x="400" y="500" type="line"/>
			<point x="550" y="500" type="line"/>
			<point x="550" y="700" type="line"/>
		</contour>
		<contour>
			<point x="100" y="900" type="line"/>
			<point x="100" y="800" type="line"/>
			<point x="250" y="800" type="line"/>
			<point x="250" y="900" type="line"/>
		</contour>
		<contour>
			<point x="250" y="800" type="line"/>
			<point x="250" y="700" type="line"/>
			<point x="400" y="700" type="line"/>
			<point x="400" y="800" type="line"/>
		</contour>
		<contour>
			<point x="400" y="900" type="line"/>
			<point x="400" y="800" type="line"/>
			<point x="550" y="800" type="line"/>
			<point x="550" y="900" type="line"/>
		</contour>
	</outline>
</glyph>
<glyph name="divide" format="2">
	<advance width="550"/>
	<unicode hex="00F7"/>
	<outline>
		<contour>
			<point x="50" y="350" type="line"/>
			<point x="50" y="200" type="line"/>
			<point x="500" y="200" type="line"/>
			<point x="500" y="350" type="line"/>
		</contour>
		<component base="_part.point" xOffset="150"/>
		<component base="_part.point" xOffset="150" yOffset="400"/>
	</outline>
</glyph>
<glyph name="oslash" format="2">
	<advance width="670"/>
	<unicode hex="00F8"/>
	<outline>
		<contour>
			<point x="505" y="580" type="line"/>
			<point x="505" y="450" type="line"/>
			<point x="635" y="450" type="line"/>
			<point x="635" y="580" type="line"/>
		</contour>
		<contour>
			<point x="35" y="50" type="line"/>
			<point x="35" y="-80" type="line"/>
			<point x="165" y="-80" type="line"/>
			<point x="165" y="50" type="line"/>
		</contour>
		<component base="o" xOffset="40"/>
	</outline>
</glyph>
<glyph name="Aogonek" format="2">
	<advance width="600"/>
	<unicode hex="0104"/>
	<anchor x="550" y="0" name="ogonek"/>
	<anchor x="300" y="0" name="bottom"/>
	<anchor x="300" y="800" name="top"/>
	<outline>
		<contour>
			<point x="400" y="-100" type="line"/>
			<point x="400" y="-200" type="line"/>
			<point x="550" y="-200" type="line"/>
			<point x="550" y="-100" type="line"/>
		</contour>
		<contour>
			<point x="300" y="0" type="line"/>
			<point x="300" y="-100" type="line"/>
			<point x="400" y="-100" type="line"/>
			<point x="400" y="0" type="line"/>
		</contour>
		<component base="A"/>
	</outline>
</glyph>
<glyph name="cacute" format="2">
	<advance width="500"/>
	<unicode hex="0107"/>
	<outline>
		<contour>
			<point x="200" y="500" type="line"/>
			<point x="200" y="350" type="line"/>
			<point x="450" y="350" type="line"/>
			<point x="450" y="500" type="line"/>
		</contour>
		<contour>
			<point x="50" y="350" type="line"/>
			<point x="50" y="150" type="line"/>
			<point x="200" y="150" type="line"/>
			<point x="200" y="350" type="line"/>
		</contour>
		<contour>
			<point x="200" y="150" type="line"/>
			<point x="200" y="0" type="line"/>
			<point x="450" y="0" type="line"/>
			<point x="450" y="150" type="line"/>
		</contour>
		<contour>
			<point x="200" y="700" type="line"/>
			<point x="200" y="600" type="line"/>
			<point x="350" y="600" type="line"/>
			<point x="350" y="700" type="line"/>
		</contour>
		<contour>
			<point x="350" y="800" type="line"/>
			<point x="350" y="700" type="line"/>
			<point x="500" y="700" type="line"/>
			<point x="500" y="800" type="line"/>
		</contour>
	</outline>
</glyph>
<glyph name="dcroat" format="2">
	<advance width="675"/>
	<unicode hex="0111"/>
	<outline>
		<contour>
			<point x="375" y="400" type="line"/>
			<point x="375" y="150" type="line"/>
			<point x="525" y="150" type="line"/>
			<point x="525" y="400" type="line"/>
		</contour>
		<contour>
			<point x="175" y="150" type="line"/>
			<point x="175" y="0" type="line"/>
			<point x="375" y="0" type="line"/>
			<point x="375" y="150" type="line"/>
		</contour>
		<contour>
			<point x="25" y="400" type="line"/>
			<point x="25" y="150" type="line"/>
			<point x="175" y="150" type="line"/>
			<point x="175" y="400" type="line"/>
		</contour>
		<contour>
			<point x="175" y="500" type="line"/>
			<point x="175" y="400" type="line"/>
			<point x="375" y="400" type="line"/>
			<point x="375" y="500" type="line"/>
		</contour>
		<contour>
			<point x="175" y="700" type="line"/>
			<point x="175" y="600" type="line"/>
			<point x="375" y="600" type="line"/>
			<point x="375" y="700" type="line"/>
		</contour>
		<contour>
			<point x="375" y="600" type="line"/>
			<point x="375" y="500" type="line"/>
			<point x="525" y="500" type="line"/>
			<point x="525" y="600" type="line"/>
		</contour>
		<contour>
			<point x="375" y="800" type="line"/>
			<point x="375" y="700" type="line"/>
			<point x="525" y="700" type="line"/>
			<point x="525" y="800" type="line"/>
		</contour>
		<contour>
			<point x="525" y="700" type="line"/>
			<point x="525" y="600" type="line"/>
			<point x="675" y="600" type="line"/>
			<point x="675" y="700" type="line"/>
		</contour>
	</outline>
</glyph>
<glyph name="Emacron" format="2">
	<advance width="530"/>
	<unicode hex="0112"/>
	<outline>
		<contour>
			<point x="65" y="1000" type="line"/>
			<point x="65" y="900" type="line"/>
			<point x="465" y="900" type="line"/>
			<point x="465" y="1000" type="line"/>
		</contour>
		<component base="E"/>
	</outline>
</glyph>
<glyph name="Hbar" format="2">
	<advance width="700"/>
	<unicode hex="0126"/>
	<outline>
		<contour>
			<point x="450" y="250" type="line"/>
			<point x="450" y="0" type="line"/>
			<point x="600" y="0" type="line"/>
			<point x="600" y="250" type="line"/>
		</contour>
		<contour>
			<point x="100" y="250" type="line"/>
			<point x="100" y="0" type="line"/>
			<point x="250" y="0" type="line"/>
			<point x="250" y="250" type="line"/>
		</contour>
		<contour>
			<point x="100" y="550" type="line"/>
			<point x="100" y="400" type="line"/>
			<point x="250" y="400" type="line"/>
			<point x="250" y="550" type="line"/>
		</contour>
		<contour>
			<point x="250" y="400" type="line"/>
			<point x="250" y="250" type="line"/>
			<point x="450" y="250" type="line"/>
			<point x="450" y="400" type="line"/>
		</contour>
		<contour>
			<point x="0" y="650" type="line"/>
			<point x="0" y="550" type="line"/>
			<point x="100" y="550" type="line"/>
			<point x="100" y="650" type="line"/>
		</contour>
		<contour>
			<point x="100" y="800" type="line"/>
			<point x="100" y="650" type="line"/>
			<point x="250" y="650" type="line"/>
			<point x="250" y="800" type="line"/>
		</contour>
		<contour>
			<point x="250" y="650" type="line"/>
			<point x="250" y="550" type="line"/>
			<point x="450" y="550" type="line"/>
			<point x="450" y="650" type="line"/>
		</contour>
		<contour>
			<point x="450" y="550" type="line"/>
			<point x="450" y="400" type="line"/>
			<point x="600" y="400" type="line"/>
			<point x="600" y="550" type="line"/>
		</contour>
		<contour>
			<point x="600" y="650" type="line"/>
			<point x="600" y="550" type="line"/>
			<point x="700" y="550" type="line"/>
			<point x="700" y="650" type="line"/>
		</contour>
		<contour>
			<point x="450" y="800" type="line"/>
			<point x="450" y="650" type="line"/>
			<point x="600" y="650" type="line"/>
			<point x="600" y="800" type="line"/>
		</contour>
	</outline>
</glyph>
<glyph name="hbar" format="2">
	<advance width="600"/>
	<unicode hex="0127"/>
	<outline>
		<contour>
			<point x="400" y="400" type="line"/>
			<point x="400" y="0" type="line"/>
			<point x="550" y="0" type="line"/>
			<point x="550" y="400" type="line"/>
		</contour>
		<contour>
			<point x="100" y="400" type="line"/>
			<point x="100" y="0" type="line"/>
			<point x="250" y="0" type="line"/>
			<point x="250" y="400" type="line"/>
		</contour>
		<contour>
			<point x="0" y="700" type="line"/>
			<point x="0" y="600" type="line"/>
			<point x="100" y="600" type="line"/>
			<point x="100" y="700" type="line"/>
		</contour>
		<contour>
			<point x="100" y="600" type="line"/>
			<point x="100" y="500" type="line"/>
			<point x="250" y="500" type="line"/>
			<point x="250" y="600" type="line"/>
		</contour>
		<contour>
			<point x="250" y="500" type="line"/>
			<point x="250" y="400" type="line"/>
			<point x="400" y="400" type="line"/>
			<point x="400" y="500" type="line"/>
		</contour>
		<contour>
			<point x="100" y="800" type="line"/>
			<point x="100" y="700" type="line"/>
			<point x="250" y="700" type="line"/>
			<point x="250" y="800" type="line"/>
		</contour>
		<contour>
			<point x="250" y="700" type="line"/>
			<point x="250" y="600" type="line"/>
			<point x="450" y="600" type="line"/>
			<point x="450" y="700" type="line"/>
		</contour>
	</outline>
</glyph>
<glyph name="Iogonek" format="2">
	<advance width="280"/>
	<unicode hex="012E"/>
	<outline>
		<contour>
			<point x="65" y="-100" type="line"/>
			<point x="65" y="-200" type="line"/>
			<point x="215" y="-200" type="line"/>
			<point x="215" y="-100" type="line"/>
		</contour>
		<contour>
			<point x="-35" y="0" type="line"/>
			<point x="-35" y="-100" type="line"/>
			<point x="65" y="-100" type="line"/>
			<point x="65" y="0" type="line"/>
		</contour>
		<component base="I"/>
	</outline>
</glyph>
<glyph name="dotlessi" format="2">
	<advance width="280"/>
	<unicode hex="0131"/>
	<anchor x="215" y="0" name="ogonek"/>
	<anchor x="140" y="0" name="bottom"/>
	<anchor x="140" y="400" name="top"/>
	<outline>
		<contour>
			<point x="65" y="400" type="line"/>
			<point x="65" y="0" type="line"/>
			<point x="215" y="0" type="line"/>
			<point x="215" y="400" type="line"/>
		</contour>
	</outline>
</glyph>
<glyph name="Lslash" format="2">
	<advance width="600"/>
	<unicode hex="0141"/>
	<outline>
		<contour>
			<point x="300" y="150" type="line"/>
			<point x="300" y="0" type="line"/>
			<point x="600" y="0" type="line"/>
			<point x="600" y="150" type="line"/>
		</contour>
		<contour>
			<point x="0" y="400" type="line"/>
			<point x="0" y="300" type="line"/>
			<point x="150" y="300" type="line"/>
			<point x="150" y="400" type="line"/>
		</contour>
		<contour>
			<point x="150" y="800" type="line"/>
			<point x="150" y="600" type="line"/>
			<point x="300" y="600" type="line"/>
			<point x="300" y="800" type="line"/>
		</contour>
		<contour>
			<point x="150" y="300" type="line"/>
			<point x="150" y="150" type="line"/>
			<point x="300" y="150" type="line"/>
			<point x="300" y="300" type="line"/>
		</contour>
		<contour>
			<point x="150" y="500" type="line"/>
			<point x="150" y="400" type="line"/>
			<point x="300" y="400" type="line"/>
			<point x="300" y="500" type="line"/>
		</contour>
		<contour>
			<point x="300" y="600" type="line"/>
			<point x="300" y="500" type="line"/>
			<point x="450" y="500" type="line"/>
			<point x="450" y="600" type="line"/>
		</contour>
		<contour>
			<point x="450" y="700" type="line"/>
			<point x="450" y="600" type="line"/>
			<point x="600" y="600" type="line"/>
			<point x="600" y="700" type="line"/>
		</contour>
	</outline>
</glyph>
<glyph name="lslash" format="2">
	<advance width="500"/>
	<unicode hex="0142"/>
	<outline>
		<contour>
			<point x="250" y="150" type="line"/>
			<point x="250" y="0" type="line"/>
			<point x="450" y="0" type="line"/>
			<point x="450" y="150" type="line"/>
		</contour>
		<contour>
			<point x="100" y="250" type="line"/>
			<point x="100" y="150" type="line"/>
			<point x="250" y="150" type="line"/>
			<point x="250" y="250" type="line"/>
		</contour>
		<contour>
			<point x="-50" y="350" type="line"/>
			<point x="-50" y="250" type="line"/>
			<point x="100" y="250" type="line"/>
			<point x="100" y="350" type="line"/>
		</contour>
		<contour>
			<point x="100" y="450" type="line"/>
			<point x="100" y="350" type="line"/>
			<point x="250" y="350" type="line"/>
			<point x="250" y="450" type="line"/>
		</contour>
		<contour>
			<point x="250" y="550" type="line"/>
			<point x="250" y="450" type="line"/>
			<point x="400" y="450" type="line"/>
			<point x="400" y="550" type="line"/>
		</contour>
		<contour>
			<point x="100" y="700" type="line"/>
			<point x="100" y="550" type="line"/>
			<point x="250" y="550" type="line"/>
			<point x="250" y="700" type="line"/>
		</contour>
		<contour>
			<point x="400" y="650" type="line"/>
			<point x="400" y="550" type="line"/>
			<point x="550" y="550" type="line"/>
			<point x="550" y="650" type="line"/>
		</contour>
	</outline>
</glyph>
<glyph name="eng" format="2">
	<advance width="600"/>
	<unicode hex="014B"/>
	<outline>
		<contour>
			<point x="400" y="350" type="line"/>
			<point x="400" y="-100" type="line"/>
			<point x="550" y="-100" type="line"/>
			<point x="550" y="350" type="line"/>
		</contour>
		<contour>
			<point x="250" y="-100" type="line"/>
			<point x="250" y="-200" type="line"/>
			<point x="400" y="-200" type="line"/>
			<point x="400" y="-100" type="line"/>
		</contour>
		<contour>
			<point x="100" y="350" type="line"/>
			<point x="100" y="0" type="line"/>
			<point x="250" y="0" type="line"/>
			<point x="250" y="350" type="line"/>
		</contour>
		<contour>
			<point x="0" y="500" type="line"/>
			<point x="0" y="350" type="line"/>
			<point x="100" y="350" type="line"/>
			<point x="100" y="500" type="line"/>
		</contour>
		<contour>
			<point x="250" y="500" type="line"/>
			<point x="250" y="350" type="line"/>
			<point x="400" y="350" type="line"/>
			<point x="400" y="500" type="line"/>
		</contour>
	</outline>
</glyph>
<glyph name="OE" format="2">
	<advance width="1318"/>
	<unicode hex="0152"/>
	<outline>
		<contour>
			<point x="455" y="-20" type="curve"/>
			<point x="455" y="-20" type="line"/>
			<point x="689" y="-20"/>
			<point x="875" y="216"/>
			<point x="875" y="400" type="curve"/>
			<point x="875" y="628"/>
			<point x="689" y="820"/>
			<point x="455" y="820" type="curve"/>
			<point x="221" y="820"/>
			<point x="35" y="628"/>
			<point x="35" y="400" type="curve"/>
			<point x="35" y="166"/>
			<point x="221" y="-20"/>
		</contour>
		<contour>
			<point x="868" y="325" type="line"/>
			<point x="868" y="150" type="line"/>
			<point x="1018" y="150" type="line"/>
			<point x="1018" y="325" type="line"/>
		</contour>
		<contour>
			<point x="1018" y="150" type="line"/>
			<point x="1018" y="0" type="line"/>
			<point x="1268" y="0" type="line"/>
			<point x="1268" y="150" type="line"/>
		</contour>
		<contour>
			<point x="1018" y="475" type="line"/>
			<point x="1018" y="325" type="line"/>
			<point x="1218" y="325" type="line"/>
			<point x="1218" y="475" type="line"/>
		</contour>
		<contour>
			<point x="868" y="650" type="line"/>
			<point x="868" y="475" type="line"/>
			<point x="1018" y="475" type="line"/>
			<point x="1018" y="650" type="line"/>
		</contour>
		<contour>
			<point x="1018" y="800" type="line"/>
			<point x="1018" y="650" type="line"/>
			<point x="1268" y="650" type="line"/>
			<point x="1268" y="800" type="line"/>
		</contour>
	</outline>
</glyph>
<glyph name="oe" format="2">
	<advance width="1056"/>
	<unicode hex="0153"/>
	<outline>
		<contour>
			<point x="295" y="-10" type="curve"/>
			<point x="295" y="-10" type="line"/>
			<point x="439" y="-10"/>
			<point x="555" y="106"/>
			<point x="555" y="250" type="curve"/>
			<point x="555" y="391"/>
			<point x="439" y="510"/>
			<point x="295" y="510" type="curve"/>
			<point x="150" y="510"/>
			<point x="35" y="391"/>
			<point x="35" y="250" type="curve"/>
			<point x="35" y="106"/>
			<point x="150" y="-10"/>
		</contour>
		<contour>
			<point x="555" y="350" type="line"/>
			<point x="555" y="150" type="line"/>
			<point x="705" y="150" type="line"/>
			<point x="705" y="350" type="line"/>
		</contour>
		<contour>
			<point x="705" y="150" type="line"/>
			<point x="705" y="0" type="line"/>
			<point x="1005" y="0" type="line"/>
			<point x="1005" y="150" type="line"/>
		</contour>
		<contour>
			<point x="863" y="192" type="curve"/>
			<point x="863" y="192" type="line"/>
			<point x="950" y="192"/>
			<point x="1021" y="263"/>
			<point x="1021" y="350" type="curve"/>
			<point x="1021" y="436"/>
			<point x="950" y="508"/>
			<point x="863" y="508" type="curve"/>
			<point x="775" y="508"/>
			<point x="705" y="436"/>
			<point x="705" y="350" type="curve"/>
			<point x="705" y="263"/>
			<point x="775" y="192"/>
		</contour>
	</outline>
</glyph>
<glyph name="Scedilla" format="2">
	<advance width="630"/>
	<unicode hex="015E"/>
	<anchor x="290" y="800" name="top"/>
	<anchor x="325" y="-200" name="bottom"/>
	<outline>
		<contour>
			<point x="215" y="800" type="line"/>
			<point x="215" y="650" type="line"/>
			<point x="565" y="650" type="line"/>
			<point x="565" y="800" type="line"/>
		</contour>
		<contour>
			<point x="265" y="-100" type="line"/>
			<point x="265" y="-200" type="line"/>
			<point x="415" y="-200" type="line"/>
			<point x="415" y="-100" type="line"/>
		</contour>
		<contour>
			<point x="65" y="150" type="line"/>
			<point x="65" y="0" type="line"/>
			<point x="415" y="0" type="line"/>
			<point x="415" y="150" type="line"/>
		</contour>
		<contour>
			<point x="415" y="0" type="line"/>
			<point x="415" y="-100" type="line"/>
			<point x="565" y="-100" type="line"/>
			<point x="565" y="0" type="line"/>
		</contour>
		<contour>
			<point x="415" y="350" type="line"/>
			<point x="415" y="150" type="line"/>
			<point x="565" y="150" type="line"/>
			<point x="565" y="350" type="line"/>
		</contour>
		<contour>
			<point x="65" y="650" type="line"/>
			<point x="65" y="500" type="line"/>
			<point x="215" y="500" type="line"/>
			<point x="215" y="650" type="line"/>
		</contour>
		<contour>
			<point x="215" y="500" type="line"/>
			<point x="215" y="350" type="line"/>
			<point x="415" y="350" type="line"/>
			<point x="415" y="500" type="line"/>
		</contour>
	</outline>
</glyph>
<glyph name="scedilla" format="2">
	<advance width="550"/>
	<unicode hex="015F"/>
	<anchor x="250" y="500" name="top"/>
	<anchor x="250" y="0" name="bottom"/>
	<outline>
		<contour>
			<point x="200" y="-100" type="line"/>
			<point x="200" y="-200" type="line"/>
			<point x="350" y="-200" type="line"/>
			<point x="350" y="-100" type="line"/>
		</contour>
		<contour>
			<point x="350" y="0" type="line"/>
			<point x="350" y="-100" type="line"/>
			<point x="500" y="-100" type="line"/>
			<point x="500" y="0" type="line"/>
		</contour>
		<contour>
			<point x="150" y="500" type="line"/>
			<point x="150" y="400" type="line"/>
			<point x="450" y="400" type="line"/>
			<point x="450" y="500" type="line"/>
		</contour>
		<contour>
			<point x="50" y="100" type="line"/>
			<point x="50" y="0" type="line"/>
			<point x="350" y="0" type="line"/>
			<point x="350" y="100" type="line"/>
		</contour>
		<contour>
			<point x="50" y="400" type="line"/>
			<point x="50" y="300" type="line"/>
			<point x="150" y="300" type="line"/>
			<point x="150" y="400" type="line"/>
		</contour>
		<contour>
			<point x="150" y="300" type="line"/>
			<point x="150" y="200" type="line"/>
			<point x="350" y="200" type="line"/>
			<point x="350" y="300" type="line"/>
		</contour>
		<contour>
			<point x="350" y="200" type="line"/>
			<point x="350" y="100" type="line"/>
			<point x="450" y="100" type="line"/>
			<point x="450" y="200" type="line"/>
		</contour>
	</outline>
</glyph>
<glyph name="uni0163" format="2">
	<advance width="555"/>
	<unicode hex="0163"/>
	<anchor x="225" y="250" name="center"/>
	<anchor x="225" y="650" name="top"/>
	<anchor x="450" y="500" name="topright"/>
	<anchor x="425" y="-200" name="bottom"/>
	<outline>
		<contour>
			<point x="150" y="350" type="line"/>
			<point x="150" y="150" type="line"/>
			<point x="300" y="150" type="line"/>
			<point x="300" y="350" type="line"/>
		</contour>
		<contour>
			<point x="300" y="500" type="line"/>
			<point x="300" y="350" type="line"/>
			<point x="500" y="350" type="line"/>
			<point x="500" y="500" type="line"/>
		</contour>
		<contour>
			<point x="50" y="500" type="line"/>
			<point x="50" y="350" type="line"/>
			<point x="150" y="350" type="line"/>
			<point x="150" y="500" type="line"/>
		</contour>
		<contour>
			<point x="300" y="150" type="line"/>
			<point x="300" y="0" type="line"/>
			<point x="450" y="0" type="line"/>
			<point x="450" y="150" type="line"/>
		</contour>
		<contour>
			<point x="150" y="650" type="line"/>
			<point x="150" y="500" type="line"/>
			<point x="300" y="500" type="line"/>
			<point x="300" y="650" type="line"/>
		</contour>
		<contour>
			<point x="455" y="0" type="line"/>
			<point x="455" y="-100" type="line"/>
			<point x="605" y="-100" type="line"/>
			<point x="605" y="0" type="line"/>
		</contour>
		<contour>
			<point x="305" y="-100" type="line"/>
			<point x="305" y="-200" type="line"/>
			<point x="455" y="-200" type="line"/>
			<point x="455" y="-100" type="line"/>
		</contour>
	</outline>
</glyph>
<glyph name="Tbar" format="2">
	<advance width="600"/>
	<unicode hex="0166"/>
	<outline>
		<contour>
			<point x="200" y="300" type="line"/>
			<point x="200" y="0" type="line"/>
			<point x="350" y="0" type="line"/>
			<point x="350" y="300" type="line"/>
		</contour>
		<contour>
			<point x="200" y="650" type="line"/>
			<point x="200" y="400" type="line"/>
			<point x="350" y="400" type="line"/>
			<point x="350" y="650" type="line"/>
		</contour>
		<contour>
			<point x="50" y="400" type="line"/>
			<point x="50" y="300" type="line"/>
			<point x="200" y="300" type="line"/>
			<point x="200" y="400" type="line"/>
		</contour>
		<contour>
			<point x="350" y="400" type="line"/>
			<point x="350" y="300" type="line"/>
			<point x="500" y="300" type="line"/>
			<point x="500" y="400" type="line"/>
		</contour>
		<contour>
			<point x="15" y="800" type="line"/>
			<point x="15" y="650" type="line"/>
			<point x="200" y="650" type="line"/>
			<point x="200" y="800" type="line"/>
		</contour>
		<contour>
			<point x="350" y="800" type="line"/>
			<point x="350" y="650" type="line"/>
			<point x="525" y="650" type="line"/>
			<point x="525" y="800" type="line"/>
		</contour>
	</outline>
</glyph>
<glyph name="tbar" format="2">
	<advance width="600"/>
	<unicode hex="0167"/>
	<outline>
		<contour>
			<point x="350" y="500" type="line"/>
			<point x="350" y="350" type="line"/>
			<point x="550" y="350" type="line"/>
			<point x="550" y="500" type="line"/>
		</contour>
		<contour>
			<point x="100" y="275" type="line"/>
			<point x="100" y="175" type="line"/>
			<point x="200" y="175" type="line"/>
			<point x="200" y="275" type="line"/>
		</contour>
		<contour>
			<point x="200" y="175" type="line"/>
			<point x="200" y="100" type="line"/>
			<point x="350" y="100" type="line"/>
			<point x="350" y="175" type="line"/>
		</contour>
		<contour>
			<point x="350" y="100" type="line"/>
			<point x="350" y="0" type="line"/>
			<point x="550" y="0" type="line"/>
			<point x="550" y="100" type="line"/>
		</contour>
		<contour>
			<point x="50" y="500" type="line"/>
			<point x="50" y="350" type="line"/>
			<point x="200" y="350" type="line"/>
			<point x="200" y="500" type="line"/>
		</contour>
		<contour>
			<point x="200" y="350" type="line"/>
			<point x="200" y="275" type="line"/>
			<point x="350" y="275" type="line"/>
			<point x="350" y="350" type="line"/>
		</contour>
		<contour>
			<point x="350" y="275" type="line"/>
			<point x="350" y="175" type="line"/>
			<point x="500" y="175" type="line"/>
			<point x="500" y="275" type="line"/>
		</contour>
		<contour>
			<point x="200" y="650" type="line"/>
			<point x="200" y="500" type="line"/>
			<point x="350" y="500" type="line"/>
			<point x="350" y="650" type="line"/>
		</contour>
	</outline>
</glyph>
<glyph name="Zcaron" format="2">
	<advance width="600"/>
	<unicode hex="017D"/>
	<anchor x="300" y="400" name="center"/>
	<anchor x="300" y="0" name="bottom"/>
	<anchor x="300" y="800" name="top"/>
	<outline>
		<contour>
			<point x="50" y="800" type="line"/>
			<point x="50" y="650" type="line"/>
			<point x="400" y="650" type="line"/>
			<point x="400" y="800" type="line"/>
		</contour>
		<contour>
			<point x="50" y="300" type="line"/>
			<point x="50" y="150" type="line"/>
			<point x="200" y="150" type="line"/>
			<point x="200" y="300" type="line"/>
		</contour>
		<contour>
			<point x="200" y="150" type="line"/>
			<point x="200" y="0" type="line"/>
			<point x="550" y="0" type="line"/>
			<point x="550" y="150" type="line"/>
		</contour>
		<contour>
			<point x="200" y="400" type="line"/>
			<point x="200" y="300" type="line"/>
			<point x="300" y="300" type="line"/>
			<point x="300" y="400" type="line"/>
		</contour>
		<contour>
			<point x="300" y="500" type="line"/>
			<point x="300" y="400" type="line"/>
			<point x="400" y="400" type="line"/>
			<point x="400" y="500" type="line"/>
		</contour>
		<contour>
			<point x="400" y="650" type="line"/>
			<point x="400" y="500" type="line"/>
			<point x="550" y="500" type="line"/>
			<point x="550" y="650" type="line"/>
		</contour>
		<component base="uni030C" xOffset="575" yOffset="300"/>
	</outline>
</glyph>
<glyph name="uni0307" format="2">
	<advance width="0"/>
	<unicode hex="0307"/>
	<anchor x="-125" y="750" name="top"/>
	<anchor x="-125" y="500" name="_top"/>
	<outline>
		<contour>
			<point x="-200" y="750" type="line"/>
			<point x="-200" y="600" type="line"/>
			<point x="-50" y="600" type="line"/>
			<point x="-50" y="750" type="line"/>
		</contour>
	</outline>
</glyph>
<glyph name="uni0308" format="2">
	<advance width="0"/>
	<unicode hex="0308"/>
	<anchor x="-220" y="700" name="top"/>
	<anchor x="-220" y="500" name="_top"/>
	<outline>
		<contour>
			<point x="-180" y="700" type="line"/>
			<point x="-180" y="600" type="line"/>
			<point x="-55" y="600" type="line"/>
			<point x="-55" y="700" type="line"/>
		</contour>
		<contour>
			<point x="-385" y="700" type="line"/>
			<point x="-385" y="600" type="line"/>
			<point x="-260" y="600" type="line"/>
			<point x="-260" y="700" type="line"/>
		</contour>
	</outline>
</glyph>
<glyph name="uni030A" format="2">
	<advance width="0"/>
	<unicode hex="030A"/>
	<anchor x="-245" y="900" name="top"/>
	<anchor x="-245" y="500" name="_top"/>
	<outline>
		<contour>
			<point x="-180" y="800" type="line"/>
			<point x="-180" y="700" type="line"/>
			<point x="-50" y="700" type="line"/>
			<point x="-50" y="800" type="line"/>
		</contour>
		<contour>
			<point x="-440" y="800" type="line"/>
			<point x="-440" y="700" type="line"/>
			<point x="-310" y="700" type="line"/>
			<point x="-310" y="800" type="line"/>
		</contour>
		<contour>
			<point x="-310" y="700" type="line"/>
			<point x="-310" y="600" type="line"/>
			<point x="-180" y="600" type="line"/>
			<point x="-180" y="700" type="line"/>
		</contour>
		<contour>
			<point x="-310" y="900" type="line"/>
			<point x="-310" y="800" type="line"/>
			<point x="-180" y="800" type="line"/>
			<point x="-180" y="900" type="line"/>
		</contour>
	</outline>
</glyph>
<glyph name="uni0326" format="2">
	<advance width="0"/>
	<unicode hex="0326"/>
	<anchor x="-125" y="0" name="_bottom"/>
	<anchor x="-200" y="-250" name="bottom"/>
	<outline>
		<contour>
			<point x="-200" y="-50" type="line"/>
			<point x="-200" y="-150" type="line"/>
			<point x="-50" y="-150" type="line"/>
			<point x="-50" y="-50" type="line"/>
		</contour>
		<contour>
			<point x="-350" y="-150" type="line"/>
			<point x="-350" y="-250" type="line"/>
			<point x="-200" y="-250" type="line"/>
			<point x="-200" y="-150" type="line"/>
		</contour>
	</outline>
</glyph>
<glyph name="uni1E9E" format="2">
	<advance width="730"/>
	<unicode hex="1E9E"/>
	<outline>
		<contour>
			<point x="65" y="650" type="line"/>
			<point x="65" y="0" type="line"/>
			<point x="215" y="0" type="line"/>
			<point x="215" y="650" type="line"/>
		</contour>
		<contour>
			<point x="315" y="150" type="line"/>
			<point x="315" y="0" type="line"/>
			<point x="515" y="0" type="line"/>
			<point x="515" y="150" type="line"/>
		</contour>
		<contour>
			<point x="515" y="400" type="line"/>
			<point x="515" y="150" type="line"/>
			<point x="665" y="150" type="line"/>
			<point x="665" y="400" type="line"/>
		</contour>
		<contour>
			<point x="365" y="500" type="line"/>
			<point x="365" y="400" type="line"/>
			<point x="515" y="400" type="line"/>
			<point x="515" y="500" type="line"/>
		</contour>
		<contour>
			<point x="215" y="800" type="line"/>
			<point x="215" y="650" type="line"/>
			<point x="515" y="650" type="line"/>
			<point x="515" y="800" type="line"/>
		</contour>
		<contour>
			<point x="515" y="650" type="line"/>
			<point x="515" y="500" type="line"/>
			<point x="665" y="500" type="line"/>
			<point x="665" y="650" type="line"/>
		</contour>
	</outline>
</glyph>
<glyph name="endash" format="2">
	<advance width="600"/>
	<unicode hex="2013"/>
	<outline>
		<contour>
			<point x="50" y="325" type="line"/>
			<point x="50" y="175" type="line"/>
			<point x="550" y="175" type="line"/>
			<point x="550" y="325" type="line"/>
		</contour>
	</outline>
</glyph>
<glyph name="emdash" format="2">
	<advance width="730"/>
	<unicode hex="2014"/>
	<outline>
		<contour>
			<point x="50" y="325" type="line"/>
			<point x="50" y="175" type="line"/>
			<point x="680" y="175" type="line"/>
			<point x="680" y="325" type="line"/>
		</contour>
	</outline>
</glyph>
<glyph name="quoteleft" format="2">
	<advance width="250"/>
	<unicode hex="2018"/>
	<outline>
		<contour>
			<point x="0" y="700" type="line"/>
			<point x="0" y="500" type="line"/>
			<point x="150" y="500" type="line"/>
			<point x="150" y="700" type="line"/>
		</contour>
		<contour>
			<point x="150" y="800" type="line"/>
			<point x="150" y="700" type="line"/>
			<point x="250" y="700" type="line"/>
			<point x="250" y="800" type="line"/>
		</contour>
	</outline>
</glyph>
<glyph name="quotedblleft" format="2">
	<advance width="500"/>
	<unicode hex="201C"/>
	<outline>
		<contour>
			<point x="250" y="700" type="line"/>
			<point x="250" y="500" type="line"/>
			<point x="400" y="500" type="line"/>
			<point x="400" y="700" type="line"/>
		</contour>
		<contour>
			<point x="0" y="700" type="line"/>
			<point x="0" y="500" type="line"/>
			<point x="150" y="500" type="line"/>
			<point x="150" y="700" type="line"/>
		</contour>
		<contour>
			<point x="150" y="800" type="line"/>
			<point x="150" y="700" type="line"/>
			<point x="250" y="700" type="line"/>
			<point x="250" y="800" type="line"/>
		</contour>
		<contour>
			<point x="400" y="800" type="line"/>
			<point x="400" y="700" type="line"/>
			<point x="500" y="700" type="line"/>
			<point x="500" y="800" type="line"/>
		</contour>
	</outline>
</glyph>
<glyph name="quotedblbase" format="2">
	<advance width="500"/>
	<unicode hex="201E"/>
	<outline>
		<contour>
			<point x="300" y="100" type="line"/>
			<point x="300" y="-100" type="line"/>
			<point x="450" y="-100" type="line"/>
			<point x="450" y="100" type="line"/>
		</contour>
		<contour>
			<point x="200" y="-100" type="line"/>
			<point x="200" y="-200" type="line"/>
			<point x="300" y="-200" type="line"/>
			<point x="300" y="-100" type="line"/>
		</contour>
		<contour>
			<point x="50" y="100" type="line"/>
			<point x="50" y="-100" type="line"/>
			<point x="200" y="-100" type="line"/>
			<point x="200" y="100" type="line"/>
		</contour>
		<contour>
			<point x="-50" y="-100" type="line"/>
			<point x="-50" y="-200" type="line"/>
			<point x="50" y="-200" type="line"/>
			<point x="50" y="-100" type="line"/>
		</contour>
	</outline>
</glyph>
<glyph name="dagger" format="2">
	<advance width="650"/>
	<unicode hex="2020"/>
	<outline>
		<contour>
			<point x="250" y="500" type="line"/>
			<point x="250" y="0" type="line"/>
			<point x="400" y="0" type="line"/>
			<point x="400" y="500" type="line"/>
		</contour>
		<contour>
			<point x="50" y="650" type="line"/>
			<point x="50" y="500" type="line"/>
			<point x="250" y="500" type="line"/>
			<point x="250" y="650" type="line"/>
		</contour>
		<contour>
			<point x="250" y="800" type="line"/>
			<point x="250" y="650" type="line"/>
			<point x="400" y="650" type="line"/>
			<point x="400" y="800" type="line"/>
		</contour>
		<contour>
			<point x="400" y="650" type="line"/>
			<point x="400" y="500" type="line"/>
			<point x="600" y="500" type="line"/>
			<point x="600" y="650" type="line"/>
		</contour>
	</outline>
</glyph>
<glyph name="daggerdbl" format="2">
	<advance width="650"/>
	<unicode hex="2021"/>
	<outline>
		<contour>
			<point x="400" y="650" type="line"/>
			<point x="400" y="500" type="line"/>
			<point x="600" y="500" type="line"/>
			<point x="600" y="650" type="line"/>
		</contour>
		<contour>
			<point x="250" y="150" type="line"/>
			<point x="250" y="0" type="line"/>
			<point x="400" y="0" type="line"/>
			<point x="400" y="150" type="line"/>
		</contour>
		<contour>
			<point x="50" y="300" type="line"/>
			<point x="50" y="150" type="line"/>
			<point x="250" y="150" type="line"/>
			<point x="250" y="300" type="line"/>
		</contour>
		<contour>
			<point x="250" y="500" type="line"/>
			<point x="250" y="300" type="line"/>
			<point x="400" y="300" type="line"/>
			<point x="400" y="500" type="line"/>
		</contour>
		<contour>
			<point x="50" y="650" type="line"/>
			<point x="50" y="500" type="line"/>
			<point x="250" y="500" type="line"/>
			<point x="250" y="650" type="line"/>
		</contour>
		<contour>
			<point x="400" y="300" type="line"/>
			<point x="400" y="150" type="line"/>
			<point x="600" y="150" type="line"/>
			<point x="600" y="300" type="line"/>
		</contour>
		<contour>
			<point x="250" y="800" type="line"/>
			<point x="250" y="650" type="line"/>
			<point x="400" y="650" type="line"/>
			<point x="400" y="800" type="line"/>
		</contour>
	</outline>
</glyph>
<glyph name="bullet" format="2">
	<advance width="386"/>
	<unicode hex="2022"/>
	<outline>
		<contour>
			<point x="193" y="92" type="curve"/>
			<point x="193" y="92" type="line"/>
			<point x="280" y="92"/>
			<point x="351" y="163"/>
			<point x="351" y="250" type="curve"/>
			<point x="351" y="336"/>
			<point x="280" y="408"/>
			<point x="193" y="408" type="curve"/>
			<point x="105" y="408"/>
			<point x="35" y="336"/>
			<point x="35" y="250" type="curve"/>
			<point x="35" y="163"/>
			<point x="105" y="92"/>
		</contour>
	</outline>
</glyph>
<glyph name="perthousand" format="2">
	<advance width="901"/>
	<unicode hex="2030"/>
	<outline>
		<contour>
			<point x="761" y="-4" type="curve"/>
			<point x="761" y="-4" type="line"/>
			<point x="819" y="-4"/>
			<point x="866" y="43"/>
			<point x="866" y="101" type="curve"/>
			<point x="866" y="158"/>
			<point x="819" y="206"/>
			<point x="761" y="206" type="curve"/>
			<point x="703" y="206"/>
			<point x="656" y="158"/>
			<point x="656" y="101" type="curve"/>
			<point x="656" y="43"/>
			<point x="703" y="-4"/>
		</contour>
		<contour>
			<point x="35" y="150" type="line"/>
			<point x="35" y="0" type="line"/>
			<point x="185" y="0" type="line"/>
			<point x="185" y="150" type="line"/>
		</contour>
		<contour>
			<point x="185" y="300" type="line"/>
			<point x="185" y="150" type="line"/>
			<point x="335" y="150" type="line"/>
			<point x="335" y="300" type="line"/>
		</contour>
		<contour>
			<point x="516" y="-4" type="curve"/>
			<point x="516" y="-4" type="line"/>
			<point x="574" y="-4"/>
			<point x="621" y="43"/>
			<point x="621" y="101" type="curve"/>
			<point x="621" y="158"/>
			<point x="574" y="206"/>
			<point x="516" y="206" type="curve"/>
			<point x="458" y="206"/>
			<point x="411" y="158"/>
			<point x="411" y="101" type="curve"/>
			<point x="411" y="43"/>
			<point x="458" y="-4"/>
		</contour>
		<contour>
			<point x="154" y="395" type="curve"/>
			<point x="154" y="395" type="line"/>
			<point x="212" y="395"/>
			<point x="259" y="442"/>
			<point x="259" y="500" type="curve"/>
			<point x="259" y="557"/>
			<point x="212" y="605"/>
			<point x="154" y="605" type="curve"/>
			<point x="96" y="605"/>
			<point x="49" y="557"/>
			<point x="49" y="500" type="curve"/>
			<point x="49" y="442"/>
			<point x="96" y="395"/>
		</contour>
		<contour>
			<point x="335" y="450" type="line"/>
			<point x="335" y="300" type="line"/>
			<point x="485" y="300" type="line"/>
			<point x="485" y="450" type="line"/>
		</contour>
		<contour>
			<point x="485" y="600" type="line"/>
			<point x="485" y="450" type="line"/>
			<point x="635" y="450" type="line"/>
			<point x="635" y="600" type="line"/>
		</contour>
	</outline>
</glyph>
<glyph name="guilsinglleft" format="2">
	<advance width="300"/>
	<unicode hex="2039"/>
	<outline>
		<contour>
			<point x="150" y="475" type="line"/>
			<point x="150" y="325" type="line"/>
			<point x="250" y="325" type="line"/>
			<point x="250" y="475" type="line"/>
		</contour>
		<contour>
			<point x="50" y="325" type="line"/>
			<point x="50" y="175" type="line"/>
			<point x="150" y="175" type="line"/>
			<point x="150" y="325" type="line"/>
		</contour>
		<contour>
			<point x="150" y="175" type="line"/>
			<point x="150" y="25" type="line"/>
			<point x="250" y="25" type="line"/>
			<point x="250" y="175" type="line"/>
		</contour>
	</outline>
</glyph>
<glyph name="Euro" format="2">
	<advance width="600"/>
	<unicode hex="20AC"/>
	<outline>
		<contour>
			<point x="300" y="800" type="line"/>
			<point x="300" y="650" type="line"/>
			<point x="550" y="650" type="line"/>
			<point x="550" y="800" type="line"/>
		</contour>
		<contour>
			<point x="150" y="250" type="line"/>
			<point x="150" y="150" type="line"/>
			<point x="300" y="150" type="line"/>
			<point x="300" y="250" type="line"/>
		</contour>
		<contour>
			<point x="50" y="350" type="line"/>
			<point x="50" y="250" type="line"/>
			<point x="150" y="250" type="line"/>
			<point x="150" y="350" type="line"/>
		</contour>
		<contour>
			<point x="300" y="150" type="line"/>
			<point x="300" y="0" type="line"/>
			<point x="550" y="0" type="line"/>
			<point x="550" y="150" type="line"/>
		</contour>
		<contour>
			<point x="150" y="450" type="line"/>
			<point x="150" y="350" type="line"/>
			<point x="300" y="350" type="line"/>
			<point x="300" y="450" type="line"/>
		</contour>
		<contour>
			<point x="50" y="550" type="line"/>
			<point x="50" y="450" type="line"/>
			<point x="150" y="450" type="line"/>
			<point x="150" y="550" type="line"/>
		</contour>
		<contour>
			<point x="300" y="350" type="line"/>
			<point x="300" y="250" type="line"/>
			<point x="500" y="250" type="line"/>
			<point x="500" y="350" type="line"/>
		</contour>
		<contour>
			<point x="150" y="650" type="line"/>
			<point x="150" y="550" type="line"/>
			<point x="300" y="550" type="line"/>
			<point x="300" y="650" type="line"/>
		</contour>
		<contour>
			<point x="300" y="550" type="line"/>
			<point x="300" y="450" type="line"/>
			<point x="500" y="450" type="line"/>
			<point x="500" y="550" type="line"/>
		</contour>
	</outline>
</glyph>
<glyph name="uni2113" format="2">
	<advance width="700"/>
	<unicode hex="2113"/>
	<outline>
		<contour>
			<point x="350" y="650" type="line"/>
			<point x="350" y="300" type="line"/>
			<point x="500" y="300" type="line"/>
			<point x="500" y="650" type="line"/>
		</contour>
		<contour>
			<point x="50" y="150" type="line"/>
			<point x="50" y="0" type="line"/>
			<point x="200" y="0" type="line"/>
			<point x="200" y="150" type="line"/>
		</contour>
		<contour>
			<point x="200" y="300" type="line"/>
			<point x="200" y="150" type="line"/>
			<point x="350" y="150" type="line"/>
			<point x="350" y="300" type="line"/>
		</contour>
		<contour>
			<point x="350" y="150" type="line"/>
			<point x="350" y="0" type="line"/>
			<point x="550" y="0" type="line"/>
			<point x="550" y="150" type="line"/>
		</contour>
		<contour>
			<point x="50" y="650" type="line"/>
			<point x="50" y="300" type="line"/>
			<point x="200" y="300" type="line"/>
			<point x="200" y="650" type="line"/>
		</contour>
		<contour>
			<point x="550" y="300" type="line"/>
			<point x="550" y="150" type="line"/>
			<point x="650" y="150" type="line"/>
			<point x="650" y="300" type="line"/>
		</contour>
		<contour>
			<point x="200" y="800" type="line"/>
			<point x="200" y="650" type="line"/>
			<point x="350" y="650" type="line"/>
			<point x="350" y="800" type="line"/>
		</contour>
	</outline>
</glyph>
<glyph name="arrowup" format="2">
	<advance width="650"/>
	<unicode hex="2191"/>
	<outline>
		<contour>
			<point x="250" y="600" type="line"/>
			<point x="250" y="0" type="line"/>
			<point x="400" y="0" type="line"/>
			<point x="400" y="600" type="line"/>
		</contour>
		<contour>
			<point x="50" y="600" type="line"/>
			<point x="50" y="500" type="line"/>
			<point x="150" y="500" type="line"/>
			<point x="150" y="600" type="line"/>
		</contour>
		<contour>
			<point x="150" y="700" type="line"/>
			<point x="150" y="600" type="line"/>
			<point x="250" y="600" type="line"/>
			<point x="250" y="700" type="line"/>
		</contour>
		<contour>
			<point x="250" y="800" type="line"/>
			<point x="250" y="700" type="line"/>
			<point x="400" y="700" type="line"/>
			<point x="400" y="800" type="line"/>
		</contour>
		<contour>
			<point x="400" y="700" type="line"/>
			<point x="400" y="600" type="line"/>
			<point x="500" y="600" type="line"/>
			<point x="500" y="700" type="line"/>
		</contour>
		<contour>
			<point x="500" y="600" type="line"/>
			<point x="500" y="500" type="line"/>
			<point x="600" y="500" type="line"/>
			<point x="600" y="600" type="line"/>
		</contour>
	</outline>
</glyph>
<glyph name="arrowboth" format="2">
	<advance width="900"/>
	<unicode hex="2194"/>
	<outline>
		<contour>
			<point x="250" y="350" type="line"/>
			<point x="250" y="200" type="line"/>
			<point x="650" y="200" type="line"/>
			<point x="650" y="350" type="line"/>
		</contour>
		<contour>
			<point x="50" y="350" type="line"/>
			<point x="50" y="200" type="line"/>
			<point x="150" y="200" type="line"/>
			<point x="150" y="350" type="line"/>
		</contour>
		<contour>
			<point x="150" y="200" type="line"/>
			<point x="150" y="100" type="line"/>
			<point x="250" y="100" type="line"/>
			<point x="250" y="200" type="line"/>
		</contour>
		<contour>
			<point x="250" y="100" type="line"/>
			<point x="250" y="0" type="line"/>
			<point x="350" y="0" type="line"/>
			<point x="350" y="100" type="line"/>
		</contour>
		<contour>
			<point x="150" y="450" type="line"/>
			<point x="150" y="350" type="line"/>
			<point x="250" y="350" type="line"/>
			<point x="250" y="450" type="line"/>
		</contour>
		<contour>
			<point x="550" y="100" type="line"/>
			<point x="550" y="0" type="line"/>
			<point x="650" y="0" type="line"/>
			<point x="650" y="100" type="line"/>
		</contour>
		<contour>
			<point x="250" y="550" type="line"/>
			<point x="250" y="450" type="line"/>
			<point x="350" y="450" type="line"/>
			<point x="350" y="550" type="line"/>
		</contour>
		<contour>
			<point x="650" y="200" type="line"/>
			<point x="650" y="100" type="line"/>
			<point x="750" y="100" type="line"/>
			<point x="750" y="200" type="line"/>
		</contour>
		<contour>
			<point x="750" y="350" type="line"/>
			<point x="750" y="200" type="line"/>
			<point x="850" y="200" type="line"/>
			<point x="850" y="350" type="line"/>
		</contour>
		<contour>
			<point x="650" y="450" type="line"/>
			<point x="650" y="350" type="line"/>
			<point x="750" y="350" type="line"/>
			<point x="750" y="450" type="line"/>
		</contour>
		<contour>
			<point x="550" y="550" type="line"/>
			<point x="550" y="450" type="line"/>
			<point x="650" y="450" type="line"/>
			<point x="650" y="550" type="line"/>
		</contour>
	</outline>
</glyph>
<glyph name="arrowupdn" format="2">
	<advance width="650"/>
	<unicode hex="2195"/>
	<outline>
		<contour>
			<point x="250" y="600" type="line"/>
			<point x="250" y="200" type="line"/>
			<point x="400" y="200" type="line"/>
			<point x="400" y="600" type="line"/>
		</contour>
		<contour>
			<point x="250" y="100" type="line"/>
			<point x="250" y="0" type="line"/>
			<point x="400" y="0" type="line"/>
			<point x="400" y="100" type="line"/>
		</contour>
		<contour>
			<point x="150" y="200" type="line"/>
			<point x="150" y="100" type="line"/>
			<point x="250" y="100" type="line"/>
			<point x="250" y="200" type="line"/>
		</contour>
		<contour>
			<point x="50" y="300" type="line"/>
			<point x="50" y="200" type="line"/>
			<point x="150" y="200" type="line"/>
			<point x="150" y="300" type="line"/>
		</contour>
		<contour>
			<point x="400" y="200" type="line"/>
			<point x="400" y="100" type="line"/>
			<point x="500" y="100" type="line"/>
			<point x="500" y="200" type="line"/>
		</contour>
		<contour>
			<point x="50" y="600" type="line"/>
			<point x="50" y="500" type="line"/>
			<point x="150" y="500" type="line"/>
			<point x="150" y="600" type="line"/>
		</contour>
		<contour>
			<point x="150" y="700" type="line"/>
			<point x="150" y="600" type="line"/>
			<point x="250" y="600" type="line"/>
			<point x="250" y="700" type="line"/>
		</contour>
		<contour>
			<point x="500" y="300" type="line"/>
			<point x="500" y="200" type="line"/>
			<point x="600" y="200" type="line"/>
			<point x="600" y="300" type="line"/>
		</contour>
		<contour>
			<point x="250" y="800" type="line"/>
			<point x="250" y="700" type="line"/>
			<point x="400" y="700" type="line"/>
			<point x="400" y="800" type="line"/>
		</contour>
		<contour>
			<point x="400" y="700" type="line"/>
			<point x="400" y="600" type="line"/>
			<point x="500" y="600" type="line"/>
			<point x="500" y="700" type="line"/>
		</contour>
		<contour>
			<point x="500" y="600" type="line"/>
			<point x="500" y="500" type="line"/>
			<point x="600" y="500" type="line"/>
			<point x="600" y="600" type="line"/>
		</contour>
	</outline>
</glyph>
<glyph name="product" format="2">
	<advance width="900"/>
	<unicode hex="220F"/>
	<outline>
		<contour>
			<point x="550" y="650" type="line"/>
			<point x="550" y="0" type="line"/>
			<point x="700" y="0" type="line"/>
			<point x="700" y="650" type="line"/>
		</contour>
		<contour>
			<point x="200" y="650" type="line"/>
			<point x="200" y="0" type="line"/>
			<point x="350" y="0" type="line"/>
			<point x="350" y="650" type="line"/>
		</contour>
		<contour>
			<point x="50" y="800" type="line"/>
			<point x="50" y="650" type="line"/>
			<point x="200" y="650" type="line"/>
			<point x="200" y="800" type="line"/>
		</contour>
		<contour>
			<point x="350" y="800" type="line"/>
			<point x="350" y="650" type="line"/>
			<point x="550" y="650" type="line"/>
			<point x="550" y="800" type="line"/>
		</contour>
		<contour>
			<point x="700" y="800" type="line"/>
			<point x="700" y="650" type="line"/>
			<point x="850" y="650" type="line"/>
			<point x="850" y="800" type="line"/>
		</contour>
	</outline>
</glyph>
<glyph name="minus" format="2">
	<advance width="500"/>
	<unicode hex="2212"/>
	<outline>
		<contour>
			<point x="50" y="325" type="line"/>
			<point x="50" y="175" type="line"/>
			<point x="450" y="175" type="line"/>
			<point x="450" y="325" type="line"/>
		</contour>
	</outline>
</glyph>
<glyph name="infinity" format="2">
	<advance width="1300"/>
	<unicode hex="221E"/>
	<outline>
		<contour>
			<point x="800" y="650" type="line"/>
			<point x="800" y="500" type="line"/>
			<point x="1100" y="500" type="line"/>
			<point x="1100" y="650" type="line"/>
		</contour>
		<contour>
			<point x="50" y="500" type="line"/>
			<point x="50" y="200" type="line"/>
			<point x="200" y="200" type="line"/>
			<point x="200" y="500" type="line"/>
		</contour>
		<contour>
			<point x="200" y="200" type="line"/>
			<point x="200" y="50" type="line"/>
			<point x="500" y="50" type="line"/>
			<point x="500" y="200" type="line"/>
		</contour>
		<contour>
			<point x="500" y="300" type="line"/>
			<point x="500" y="200" type="line"/>
			<point x="600" y="200" type="line"/>
			<point x="600" y="300" type="line"/>
		</contour>
		<contour>
			<point x="200" y="650" type="line"/>
			<point x="200" y="500" type="line"/>
			<point x="500" y="500" type="line"/>
			<point x="500" y="650" type="line"/>
		</contour>
		<contour>
			<point x="500" y="500" type="line"/>
			<point x="500" y="400" type="line"/>
			<point x="600" y="400" type="line"/>
			<point x="600" y="500" type="line"/>
		</contour>
		<contour>
			<point x="600" y="400" type="line"/>
			<point x="600" y="300" type="line"/>
			<point x="700" y="300" type="line"/>
			<point x="700" y="400" type="line"/>
		</contour>
		<contour>
			<point x="700" y="300" type="line"/>
			<point x="700" y="200" type="line"/>
			<point x="800" y="200" type="line"/>
			<point x="800" y="300" type="line"/>
		</contour>
		<contour>
			<point x="800" y="200" type="line"/>
			<point x="800" y="50" type="line"/>
			<point x="1100" y="50" type="line"/>
			<point x="1100" y="200" type="line"/>
		</contour>
		<contour>
			<point x="700" y="500" type="line"/>
			<point x="700" y="400" type="line"/>
			<point x="800" y="400" type="line"/>
			<point x="800" y="500" type="line"/>
		</contour>
		<contour>
			<point x="1100" y="500" type="line"/>
			<point x="1100" y="200" type="line"/>
			<point x="1250" y="200" type="line"/>
			<point x="1250" y="500" type="line"/>
		</contour>
	</outline>
</glyph>
<glyph name="integral" format="2">
	<advance width="550"/>
	<unicode hex="222B"/>
	<outline>
		<contour>
			<point x="200" y="650" type="line"/>
			<point x="200" y="150" type="line"/>
			<point x="350" y="150" type="line"/>
			<point x="350" y="650" type="line"/>
		</contour>
		<contour>
			<point x="50" y="149" type="line"/>
			<point x="50" y="-1" type="line"/>
			<point x="200" y="-1" type="line"/>
			<point x="200" y="149" type="line"/>
		</contour>
		<contour>
			<point x="350" y="800" type="line"/>
			<point x="350" y="650" type="line"/>
			<point x="500" y="650" type="line"/>
			<point x="500" y="800" type="line"/>
		</contour>
	</outline>
</glyph>
<glyph name="approxequal" format="2">
	<advance width="600"/>
	<unicode hex="2248"/>
	<outline>
		<contour>
			<point x="300" y="500" type="line"/>
			<point x="300" y="350" type="line"/>
			<point x="450" y="350" type="line"/>
			<point x="450" y="500" type="line"/>
		</contour>
		<contour>
			<point x="50" y="150" type="line"/>
			<point x="50" y="0" type="line"/>
			<point x="150" y="0" type="line"/>
			<point x="150" y="150" type="line"/>
		</contour>
		<contour>
			<point x="150" y="300" type="line"/>
			<point x="150" y="150" type="line"/>
			<point x="300" y="150" type="line"/>
			<point x="300" y="300" type="line"/>
		</contour>
		<contour>
			<point x="300" y="150" type="line"/>
			<point x="300" y="0" type="line"/>
			<point x="450" y="0" type="line"/>
			<point x="450" y="150" type="line"/>
		</contour>
		<contour>
			<point x="50" y="500" type="line"/>
			<point x="50" y="350" type="line"/>
			<point x="150" y="350" type="line"/>
			<point x="150" y="500" type="line"/>
		</contour>
		<contour>
			<point x="450" y="300" type="line"/>
			<point x="450" y="150" type="line"/>
			<point x="550" y="150" type="line"/>
			<point x="550" y="300" type="line"/>
		</contour>
		<contour>
			<point x="150" y="650" type="line"/>
			<point x="150" y="500" type="line"/>
			<point x="300" y="500" type="line"/>
			<point x="300" y="650" type="line"/>
		</contour>
		<contour>
			<point x="450" y="650" type="line"/>
			<point x="450" y="500" type="line"/>
			<point x="550" y="500" type="line"/>
			<point x="550" y="650" type="line"/>
		</contour>
	</outline>
</glyph>
<glyph name="notequal" format="2">
	<advance width="600"/>
	<unicode hex="2260"/>
	<outline>
		<contour>
			<point x="350" y="450" type="line"/>
			<point x="350" y="300" type="line"/>
			<point x="550" y="300" type="line"/>
			<point x="550" y="450" type="line"/>
		</contour>
		<contour>
			<point x="50" y="200" type="line"/>
			<point x="50" y="50" type="line"/>
			<point x="250" y="50" type="line"/>
			<point x="250" y="200" type="line"/>
		</contour>
		<contour>
			<point x="250" y="50" type="line"/>
			<point x="250" y="0" type="line"/>
			<point x="350" y="0" type="line"/>
			<point x="350" y="50" type="line"/>
		</contour>
		<contour>
			<point x="50" y="450" type="line"/>
			<point x="50" y="300" type="line"/>
			<point x="250" y="300" type="line"/>
			<point x="250" y="450" type="line"/>
		</contour>
		<contour>
			<point x="250" y="300" type="line"/>
			<point x="250" y="200" type="line"/>
			<point x="350" y="200" type="line"/>
			<point x="350" y="300" type="line"/>
		</contour>
		<contour>
			<point x="350" y="200" type="line"/>
			<point x="350" y="50" type="line"/>
			<point x="550" y="50" type="line"/>
			<point x="550" y="200" type="line"/>
		</contour>
		<contour>
			<point x="250" y="500" type="line"/>
			<point x="250" y="450" type="line"/>
			<point x="350" y="450" type="line"/>
			<point x="350" y="500" type="line"/>
		</contour>
	</outline>
</glyph>
<glyph name="lessequal" format="2">
	<advance width="600"/>
	<unicode hex="2264"/>
	<outline>
		<contour>
			<point x="50" y="225" type="line"/>
			<point x="50" y="75" type="line"/>
			<point x="450" y="75" type="line"/>
			<point x="450" y="225" type="line"/>
		</contour>
		<contour>
			<point x="50" y="540" type="line"/>
			<point x="50" y="420" type="line"/>
			<point x="250" y="420" type="line"/>
			<point x="250" y="540" type="line"/>
		</contour>
		<contour>
			<point x="250" y="420" type="line"/>
			<point x="250" y="300" type="line"/>
			<point x="450" y="300" type="line"/>
			<point x="450" y="420" type="line"/>
		</contour>
		<contour>
			<point x="250" y="660" type="line"/>
			<point x="250" y="540" type="line"/>
			<point x="450" y="540" type="line"/>
			<point x="450" y="660" type="line"/>
		</contour>
	</outline>
</glyph>
<glyph name="block" format="2">
	<advance width="900"/>
	<unicode hex="2588"/>
	<outline>
		<contour>
			<point x="50" y="800" type="line"/>
			<point x="50" y="0" type="line"/>
			<point x="850" y="0" type="line"/>
			<point x="850" y="800" type="line"/>
		</contour>
	</outline>
</glyph>
<glyph name="filledbox" format="2">
	<advance width="700"/>
	<unicode hex="25A0"/>
	<outline>
		<contour>
			<point x="50" y="700" type="line"/>
			<point x="50" y="100" type="line"/>
			<point x="650" y="100" type="line"/>
			<point x="650" y="700" type="line"/>
		</contour>
	</outline>
</glyph>
<glyph name="uni25A2" format="2">
	<advance width="900"/>
	<unicode hex="25A2"/>
	<outline>
		<contour>
			<point x="700" y="650" type="line"/>
			<point x="700" y="150" type="line"/>
			<point x="850" y="150" type="line"/>
			<point x="850" y="650" type="line"/>
		</contour>
		<contour>
			<point x="50" y="650" type="line"/>
			<point x="50" y="150" type="line"/>
			<point x="200" y="150" type="line"/>
			<point x="200" y="650" type="line"/>
		</contour>
		<contour>
			<point x="200" y="150" type="line"/>
			<point x="200" y="0" type="line"/>
			<point x="700" y="0" type="line"/>
			<point x="700" y="150" type="line"/>
		</contour>
		<contour>
			<point x="200" y="800" type="line"/>
			<point x="200" y="650" type="line"/>
			<point x="700" y="650" type="line"/>
			<point x="700" y="800" type="line"/>
		</contour>
	</outline>
</glyph>
<glyph name="uni25A3" format="2">
	<advance width="900"/>
	<unicode hex="25A3"/>
	<outline>
		<contour>
			<point x="300" y="550" type="line"/>
			<point x="300" y="250" type="line"/>
			<point x="600" y="250" type="line"/>
			<point x="600" y="550" type="line"/>
		</contour>
		<contour>
			<point x="50" y="650" type="line"/>
			<point x="50" y="150" type="line"/>
			<point x="200" y="150" type="line"/>
			<point x="200" y="650" type="line"/>
		</contour>
		<contour>
			<point x="200" y="150" type="line"/>
			<point x="200" y="0" type="line"/>
			<point x="700" y="0" type="line"/>
			<point x="700" y="150" type="line"/>
		</contour>
		<contour>
			<point x="200" y="800" type="line"/>
			<point x="200" y="650" type="line"/>
			<point x="700" y="650" type="line"/>
			<point x="700" y="800" type="line"/>
		</contour>
		<contour>
			<point x="700" y="650" type="line"/>
			<point x="700" y="150" type="line"/>
			<point x="850" y="150" type="line"/>
			<point x="850" y="650" type="line"/>
		</contour>
	</outline>
</glyph>
<glyph name="uni25AA" format="2">
	<advance width="400"/>
	<unicode hex="25AA"/>
	<outline>
		<contour>
			<point x="50" y="400" type="line"/>
			<point x="50" y="100" type="line"/>
			<point x="350" y="100" type="line"/>
			<point x="350" y="400" type="line"/>
		</contour>
	</outline>
</glyph>
<glyph name="lozenge" format="2">
	<advance width="800"/>
	<unicode hex="25CA"/>
	<outline>
		<contour>
			<point x="610" y="480" type="line"/>
			<point x="610" y="310" type="line"/>
			<point x="750" y="310" type="line"/>
			<point x="750" y="480" type="line"/>
		</contour>
		<contour>
			<point x="330" y="160" type="line"/>
			<point x="330" y="0" type="line"/>
			<point x="470" y="0" type="line"/>
			<point x="470" y="160" type="line"/>
		</contour>
		<contour>
			<point x="190" y="310" type="line"/>
			<point x="190" y="160" type="line"/>
			<point x="330" y="160" type="line"/>
			<point x="330" y="310" type="line"/>
		</contour>
		<contour>
			<point x="50" y="480" type="line"/>
			<point x="50" y="310" type="line"/>
			<point x="190" y="310" type="line"/>
			<point x="190" y="480" type="line"/>
		</contour>
		<contour>
			<point x="470" y="310" type="line"/>
			<point x="470" y="160" type="line"/>
			<point x="610" y="160" type="line"/>
			<point x="610" y="310" type="line"/>
		</contour>
		<contour>
			<point x="190" y="640" type="line"/>
			<point x="190" y="480" type="line"/>
			<point x="330" y="480" type="line"/>
			<point x="330" y="640" type="line"/>
		</contour>
		<contour>
			<point x="470" y="640" type="line"/>
			<point x="470" y="480" type="line"/>
			<point x="610" y="480" type="line"/>
			<point x="610" y="640" type="line"/>
		</contour>
		<contour>
			<point x="330" y="800" type="line"/>
			<point x="330" y="640" type="line"/>
			<point x="470" y="640" type="line"/>
			<point x="470" y="800" type="line"/>
		</contour>
	</outline>
</glyph>
<glyph name="uni25E7" format="2">
	<advance width="750"/>
	<unicode hex="25E7"/>
	<outline>
		<contour>
			<point x="50" y="600" type="line"/>
			<point x="50" y="200" type="line"/>
			<point x="300" y="200" type="line"/>
			<point x="300" y="600" type="line"/>
		</contour>
		<contour>
			<point x="300" y="200" type="line"/>
			<point x="300" y="50" type="line"/>
			<point x="550" y="50" type="line"/>
			<point x="550" y="200" type="line"/>
		</contour>
		<contour>
			<point x="550" y="600" type="line"/>
			<point x="550" y="200" type="line"/>
			<point x="700" y="200" type="line"/>
			<point x="700" y="600" type="line"/>
		</contour>
		<contour>
			<point x="300" y="750" type="line"/>
			<point x="300" y="600" type="line"/>
			<point x="550" y="600" type="line"/>
			<point x="550" y="750" type="line"/>
		</contour>
	</outline>
</glyph>
<glyph name="uni25EB" format="2">
	<advance width="800"/>
	<unicode hex="25EB"/>
	<outline>
		<contour>
			<point x="600" y="600" type="line"/>
			<point x="600" y="200" type="line"/>
			<point x="750" y="200" type="line"/>
			<point x="750" y="600" type="line"/>
		</contour>
		<contour>
			<point x="200" y="200" type="line"/>
			<point x="200" y="50" type="line"/>
			<point x="350" y="50" type="line"/>
			<point x="350" y="200" type="line"/>
		</contour>
		<contour>
			<point x="50" y="600" type="line"/>
			<point x="50" y="200" type="line"/>
			<point x="200" y="200" type="line"/>
			<point x="200" y="600" type="line"/>
		</contour>
		<contour>
			<point x="450" y="200" type="line"/>
			<point x="450" y="50" type="line"/>
			<point x="600" y="50" type="line"/>
			<point x="600" y="200" type="line"/>
		</contour>
		<contour>
			<point x="350" y="600" type="line"/>
			<point x="350" y="200" type="line"/>
			<point x="450" y="200" type="line"/>
			<point x="450" y="600" type="line"/>
		</contour>
		<contour>
			<point x="200" y="750" type="line"/>
			<point x="200" y="600" type="line"/>
			<point x="350" y="600" type="line"/>
			<point x="350" y="750" type="line"/>
		</contour>
		<contour>
			<point x="450" y="750" type="line"/>
			<point x="450" y="600" type="line"/>
			<point x="600" y="600" type="line"/>
			<point x="600" y="750" type="line"/>
		</contour>
	</outline>
</glyph>
<glyph name="uni25EF" format="2">
	<advance width="900"/>
	<unicode hex="25EF"/>
	<outline>
		<contour>
			<point x="700" y="550" type="line"/>
			<point x="700" y="250" type="line"/>
			<point x="850" y="250" type="line"/>
			<point x="850" y="550" type="line"/>
		</contour>
		<contour>
			<point x="200" y="250" type="line"/>
			<point x="200" y="150" type="line"/>
			<point x="300" y="150" type="line"/>
			<point x="300" y="250" type="line"/>
		</contour>
		<contour>
			<point x="50" y="550" type="line"/>
			<point x="50" y="250" type="line"/>
			<point x="200" y="250" type="line"/>
			<point x="200" y="550" type="line"/>
		</contour>
		<contour>
			<point x="300" y="150" type="line"/>
			<point x="300" y="0" type="line"/>
			<point x="600" y="0" type="line"/>
			<point x="600" y="150" type="line"/>
		</contour>
		<contour>
			<point x="200" y="650" type="line"/>
			<point x="200" y="550" type="line"/>
			<point x="300" y="550" type="line"/>
			<point x="300" y="650" type="line"/>
		</contour>
		<contour>
			<point x="600" y="250" type="line"/>
			<point x="600" y="150" type="line"/>
			<point x="700" y="150" type="line"/>
			<point x="700" y="250" type="line"/>
		</contour>
		<contour>
			<point x="300" y="800" type="line"/>
			<point x="300" y="650" type="line"/>
			<point x="600" y="650" type="line"/>
			<point x="600" y="800" type="line"/>
		</contour>
		<contour>
			<point x="600" y="650" type="line"/>
			<point x="600" y="550" type="line"/>
			<point x="700" y="550" type="line"/>
			<point x="700" y="650" type="line"/>
		</contour>
	</outline>
</glyph>
<glyph name="uniFF62" format="2">
	<advance width="400"/>
	<unicode hex="FF62"/>
	<outline>
		<contour>
			<point x="50" y="650" type="line"/>
			<point x="50" y="350" type="line"/>
			<point x="200" y="350" type="line"/>
			<point x="200" y="650" type="line"/>
		</contour>
		<contour>
			<point x="200" y="800" type="line"/>
			<point x="200" y="650" type="line"/>
			<point x="400" y="650" type="line"/>
			<point x="400" y="800" type="line"/>
		</contour>
	</outline>
</glyph>
<glyph name="uniFF63" format="2">
	<advance width="400"/>
	<unicode hex="FF63"/>
	<outline>
		<contour>
			<point x="200" y="300" type="line"/>
			<point x="200" y="0" type="line"/>
			<point x="350" y="0" type="line"/>
			<point x="350" y="300" type="line"/>
		</contour>
		<contour>
			<point x="0" y="0" type="line"/>
			<point x="0" y="-150" type="line"/>
			<point x="200" y="-150" type="line"/>
			<point x="200" y="0" type="line"/>
		</contour>
	</outline>
</glyph>
<glyph name=".notdef" format="2">
	<advance width="750"/>
	<outline>
		<contour>
			<point x="300" y="650" type="line"/>
			<point x="300" y="300" type="line"/>
			<point x="450" y="300" type="line"/>
			<point x="450" y="650" type="line"/>
		</contour>
		<contour>
			<point x="50" y="300" type="line"/>
			<point x="50" y="150" type="line"/>
			<point x="200" y="150" type="line"/>
			<point x="200" y="300" type="line"/>
		</contour>
		<contour>
			<point x="200" y="150" type="line"/>
			<point x="200" y="0" type="line"/>
			<point x="550" y="0" type="line"/>
			<point x="550" y="150" type="line"/>
		</contour>
		<contour>
			<point x="50" y="550" type="line"/>
			<point x="50" y="400" type="line"/>
			<point x="200" y="400" type="line"/>
			<point x="200" y="550" type="line"/>
		</contour>
		<contour>
			<point x="550" y="300" type="line"/>
			<point x="550" y="150" type="line"/>
			<point x="700" y="150" type="line"/>
			<point x="700" y="300" type="line"/>
		</contour>
		<contour>
			<point x="50" y="800" type="line"/>
			<point x="50" y="650" type="line"/>
			<point x="300" y="650" type="line"/>
			<point x="300" y="800" type="line"/>
		</contour>
		<contour>
			<point x="550" y="550" type="line"/>
			<point x="550" y="400" type="line"/>
			<point x="700" y="400" type="line"/>
			<point x="700" y="550" type="line"/>
		</contour>
		<contour>
			<point x="450" y="800" type="line"/>
			<point x="450" y="650" type="line"/>
			<point x="700" y="650" type="line"/>
			<point x="700" y="800" type="line"/>
		</contour>
	</outline>
</glyph>
<glyph name="_part.point" format="2">
	<advance width="250"/>
	<outline>
		<contour>
			<point x="50" y="150" type="line"/>
			<point x="50" y="0" type="line"/>
			<point x="200" y="0" type="line"/>
			<point x="200" y="150" type="line"/>
		</contour>
	</outline>
</glyph>
<glyph name="f_f.liga" format="2">
	<advance width="835"/>
	<outline>
		<contour>
			<point x="450" y="350" type="line"/>
			<point x="450" y="0" type="line"/>
			<point x="600" y="0" type="line"/>
			<point x="600" y="350" type="line"/>
		</contour>
		<contour>
			<point x="50" y="350" type="line"/>
			<point x="50" y="0" type="line"/>
			<point x="200" y="0" type="line"/>
			<point x="200" y="350" type="line"/>
		</contour>
		<contour>
			<point x="50" y="550" type="line"/>
			<point x="50" y="450" type="line"/>
			<point x="200" y="450" type="line"/>
			<point x="200" y="550" type="line"/>
		</contour>
		<contour>
			<point x="200" y="450" type="line"/>
			<point x="200" y="350" type="line"/>
			<point x="450" y="350" type="line"/>
			<point x="450" y="450" type="line"/>
		</contour>
		<contour>
			<point x="200" y="700" type="line"/>
			<point x="200" y="550" type="line"/>
			<point x="400" y="550" type="line"/>
			<point x="400" y="700" type="line"/>
		</contour>
		<contour>
			<point x="450" y="550" type="line"/>
			<point x="450" y="450" type="line"/>
			<point x="600" y="450" type="line"/>
			<point x="600" y="550" type="line"/>
		</contour>
		<contour>
			<point x="600" y="450" type="line"/>
			<point x="600" y="350" type="line"/>
			<point x="800" y="350" type="line"/>
			<point x="800" y="450" type="line"/>
		</contour>
		<contour>
			<point x="600" y="700" type="line"/>
			<point x="600" y="550" type="line"/>
			<point x="800" y="550" type="line"/>
			<point x="800" y="700" type="line"/>
		</contour>
	</outline>
</glyph>
<glyph name="iacute_j.loclNLD" format="2">
	<advance width="685"/>
	<outline>
		<contour>
			<point x="385" y="400" type="line"/>
			<point x="385" y="-100" type="line"/>
			<point x="535" y="-100" type="line"/>
			<point x="535" y="400" type="line"/>
		</contour>
		<contour>
			<point x="235" y="-100" type="line"/>
			<point x="235" y="-200" type="line"/>
			<point x="385" y="-200" type="line"/>
			<point x="385" y="-100" type="line"/>
		</contour>
		<contour>
			<point x="50" y="400" type="line"/>
			<point x="50" y="0" type="line"/>
			<point x="200" y="0" type="line"/>
			<point x="200" y="400" type="line"/>
		</contour>
		<contour>
			<point x="50" y="600" type="line"/>
			<point x="50" y="500" type="line"/>
			<point x="200" y="500" type="line"/>
			<point x="200" y="600" type="line"/>
		</contour>
		<contour>
			<point x="200" y="700" type="line"/>
			<point x="200" y="600" type="line"/>
			<point x="350" y="600" type="line"/>
			<point x="350" y="700" type="line"/>
		</contour>
		<contour>
			<point x="385" y="600" type="line"/>
			<point x="385" y="500" type="line"/>
			<point x="535" y="500" type="line"/>
			<point x="535" y="600" type="line"/>
		</contour>
		<contour>
			<point x="535" y="700" type="line"/>
			<point x="535" y="600" type="line"/>
			<point x="685" y="600" type="line"/>
			<point x="685" y="700" type="line"/>
		</contour>
	</outline>
</glyph>
<glyph name="l_l.liga" format="2">
	<advance width="751"/>
	<outline>
		<contour>
			<point x="426" y="700" type="line"/>
			<point x="426" y="150" type="line"/>
			<point x="576" y="150" type="line"/>
			<point x="576" y="700" type="line"/>
		</contour>
		<contour>
			<point x="201" y="150" type="line"/>
			<point x="201" y="0" type="line"/>
			<point x="376" y="0" type="line"/>
			<point x="376" y="150" type="line"/>
		</contour>
		<contour>
			<point x="51" y="700" type="line"/>
			<point x="50" y="150" type="line"/>
			<point x="201" y="150" type="line"/>
			<point x="201" y="700" type="line"/>
		</contour>
		<contour>
			<point x="576" y="150" type="line"/>
			<point x="576" y="0" type="line"/>
			<point x="751" y="0" type="line"/>
			<point x="751" y="150" type="line"/>
		</contour>
	</outline>
</glyph>
<glyph name="t_t.liga" format="2">
	<advance width="900"/>
	<outline>
		<contour>
			<point x="500" y="350" type="line"/>
			<point x="500" y="150" type="line"/>
			<point x="650" y="150" type="line"/>
			<point x="650" y="350" type="line"/>
		</contour>
		<contour>
			<point x="300" y="150" type="line"/>
			<point x="300" y="0" type="line"/>
			<point x="500" y="0" type="line"/>
			<point x="500" y="150" type="line"/>
		</contour>
		<contour>
			<point x="150" y="350" type="line"/>
			<point x="150" y="150" type="line"/>
			<point x="300" y="150" type="line"/>
			<point x="300" y="350" type="line"/>
		</contour>
		<contour>
			<point x="50" y="500" type="line"/>
			<point x="50" y="350" type="line"/>
			<point x="150" y="350" type="line"/>
			<point x="150" y="500" type="line"/>
		</contour>
		<contour>
			<point x="650" y="150" type="line"/>
			<point x="650" y="0" type="line"/>
			<point x="850" y="0" type="line"/>
			<point x="850" y="150" type="line"/>
		</contour>
		<contour>
			<point x="150" y="650" type="line"/>
			<point x="150" y="500" type="line"/>
			<point x="300" y="500" type="line"/>
			<point x="300" y="650" type="line"/>
		</contour>
		<contour>
			<point x="300" y="500" type="line"/>
			<point x="300" y="350" type="line"/>
			<point x="500" y="350" type="line"/>
			<point x="500" y="500" type="line"/>
		</contour>
		<contour>
			<point x="500" y="650" type="line"/>
			<point x="500" y="500" type="line"/>
			<point x="650" y="500" type="line"/>
			<point x="650" y="650" type="line"/>
		</contour>
		<contour>
			<point x="650" y="500" type="line"/>
			<point x="650" y="350" type="line"/>
			<point x="850" y="350" type="line"/>
			<point x="850" y="500" type="line"/>
		</contour>
	</outline>
</glyph>
<glyph name="uni030C.alt" format="2">
	<advance width="0"/>
	<anchor x="-150" y="500" name="_topright"/>
	<outline>
		<contour>
			<point x="-150" y="800" type="line"/>
			<point x="-150" y="550" type="line"/>
			<point x="-50" y="550" type="line"/>
			<point x="-50" y="800" type="line"/>
		</contour>
	</outline>
</glyph>
